G75*
G70*
%OFA0B0*%
%FSLAX24Y24*%
%IPPOS*%
%LPD*%
%AMOC8*
5,1,8,0,0,1.08239X$1,22.5*
%
%ADD10C,0.0000*%
%ADD11OC8,0.0520*%
%ADD12C,0.0554*%
%ADD13C,0.1000*%
%ADD14C,0.0768*%
%ADD15OC8,0.0850*%
%ADD16OC8,0.1250*%
%ADD17C,0.0560*%
%ADD18C,0.0160*%
%ADD19C,0.5100*%
D10*
X002741Y002926D02*
X002741Y010406D01*
X002741Y015918D01*
X002743Y016012D01*
X002750Y016105D01*
X002761Y016198D01*
X002777Y016291D01*
X002797Y016382D01*
X002821Y016473D01*
X002849Y016562D01*
X002882Y016650D01*
X002919Y016736D01*
X002960Y016820D01*
X003005Y016903D01*
X003054Y016983D01*
X003106Y017060D01*
X003162Y017135D01*
X003222Y017207D01*
X003285Y017277D01*
X003351Y017343D01*
X003421Y017406D01*
X003493Y017466D01*
X003568Y017522D01*
X003645Y017574D01*
X003725Y017623D01*
X003808Y017668D01*
X003892Y017709D01*
X003978Y017746D01*
X004066Y017779D01*
X004155Y017807D01*
X004246Y017831D01*
X004337Y017851D01*
X004430Y017867D01*
X004523Y017878D01*
X004616Y017885D01*
X004710Y017887D01*
X010419Y017887D01*
X020458Y017887D01*
X020552Y017885D01*
X020645Y017878D01*
X020738Y017867D01*
X020831Y017851D01*
X020922Y017831D01*
X021013Y017807D01*
X021102Y017779D01*
X021190Y017746D01*
X021276Y017709D01*
X021360Y017668D01*
X021442Y017623D01*
X021523Y017574D01*
X021600Y017522D01*
X021675Y017466D01*
X021747Y017406D01*
X021817Y017343D01*
X021883Y017277D01*
X021946Y017207D01*
X022006Y017135D01*
X022062Y017060D01*
X022114Y016983D01*
X022163Y016902D01*
X022208Y016820D01*
X022249Y016736D01*
X022286Y016650D01*
X022319Y016562D01*
X022347Y016473D01*
X022371Y016382D01*
X022391Y016291D01*
X022407Y016198D01*
X022418Y016105D01*
X022425Y016012D01*
X022427Y015918D01*
X022426Y015918D02*
X022426Y011194D01*
X022426Y002926D01*
X022427Y002926D02*
X022425Y002832D01*
X022418Y002739D01*
X022407Y002646D01*
X022391Y002553D01*
X022371Y002462D01*
X022347Y002371D01*
X022319Y002282D01*
X022286Y002194D01*
X022249Y002108D01*
X022208Y002024D01*
X022163Y001942D01*
X022114Y001861D01*
X022062Y001784D01*
X022006Y001709D01*
X021946Y001637D01*
X021883Y001567D01*
X021817Y001501D01*
X021747Y001438D01*
X021675Y001378D01*
X021600Y001322D01*
X021523Y001270D01*
X021443Y001221D01*
X021360Y001176D01*
X021276Y001135D01*
X021190Y001098D01*
X021102Y001065D01*
X021013Y001037D01*
X020922Y001013D01*
X020831Y000993D01*
X020738Y000977D01*
X020645Y000966D01*
X020552Y000959D01*
X020458Y000957D01*
X014946Y000957D01*
X004710Y000957D01*
X004616Y000959D01*
X004523Y000966D01*
X004430Y000977D01*
X004337Y000993D01*
X004246Y001013D01*
X004155Y001037D01*
X004066Y001065D01*
X003978Y001098D01*
X003892Y001135D01*
X003808Y001176D01*
X003725Y001221D01*
X003645Y001270D01*
X003568Y001322D01*
X003493Y001378D01*
X003421Y001438D01*
X003351Y001501D01*
X003285Y001567D01*
X003222Y001637D01*
X003162Y001709D01*
X003106Y001784D01*
X003054Y001861D01*
X003005Y001942D01*
X002960Y002024D01*
X002919Y002108D01*
X002882Y002194D01*
X002849Y002282D01*
X002821Y002371D01*
X002797Y002462D01*
X002777Y002553D01*
X002761Y002646D01*
X002750Y002739D01*
X002743Y002832D01*
X002741Y002926D01*
D11*
X007491Y006707D03*
X008704Y005457D03*
X009991Y005457D03*
X009491Y006707D03*
X009491Y007957D03*
X007491Y009457D03*
X006491Y009457D03*
X005491Y010957D03*
X006241Y011457D03*
X005491Y011957D03*
X003491Y010457D03*
X005491Y007957D03*
X004491Y007707D03*
X003991Y006957D03*
X003491Y007707D03*
X008491Y011457D03*
X009241Y010957D03*
X009241Y011957D03*
X007741Y013457D03*
X007741Y014707D03*
X007741Y015957D03*
X011741Y015957D03*
X011741Y014707D03*
X011741Y013457D03*
X013241Y009707D03*
X009241Y009707D03*
X003491Y014457D03*
X008704Y001457D03*
X009991Y001457D03*
D12*
X008741Y016957D03*
X011741Y016957D03*
D13*
X005491Y004692D03*
X005491Y002723D03*
D14*
X005491Y014037D03*
X004071Y015457D03*
X005491Y016877D03*
D15*
X004991Y009457D03*
X003741Y009457D03*
D16*
X013491Y012207D03*
X013491Y015207D03*
X020491Y006707D03*
X020491Y003707D03*
D17*
X012021Y011207D02*
X011461Y011207D01*
X011461Y012207D02*
X012021Y012207D01*
D18*
X003022Y002335D02*
X003196Y001974D01*
X003445Y001661D01*
X003758Y001412D01*
X004119Y001238D01*
X004510Y001149D01*
X004710Y001137D01*
X008317Y001137D01*
X008317Y001137D01*
X006928Y001137D01*
X006828Y001137D01*
X006828Y001137D01*
X006527Y001262D01*
X006527Y001262D01*
X006296Y001493D01*
X006296Y001493D01*
X006171Y001794D01*
X006171Y001794D01*
X006171Y001894D01*
X006171Y002431D01*
X006119Y002304D01*
X005911Y002096D01*
X005639Y001983D01*
X005344Y001983D01*
X005072Y002096D01*
X004864Y002304D01*
X004823Y002403D01*
X004289Y002403D01*
X004226Y002403D01*
X004224Y002403D01*
X004162Y002403D01*
X004162Y002403D01*
X004059Y002403D01*
X004059Y002403D01*
X003741Y002506D01*
X003741Y002506D01*
X003471Y002703D01*
X003471Y002703D01*
X003275Y002973D01*
X003275Y002973D01*
X003171Y003290D01*
X003171Y003291D01*
X003171Y003394D01*
X003171Y003394D01*
X003171Y007320D01*
X002991Y007500D01*
X002991Y007915D01*
X003171Y008095D01*
X003171Y008271D01*
X003171Y008271D01*
X003171Y008321D01*
X003258Y008530D01*
X003258Y008530D01*
X003419Y008691D01*
X003419Y008691D01*
X003628Y008777D01*
X003628Y008777D01*
X003678Y008777D01*
X003678Y008777D01*
X003797Y008777D01*
X003805Y008777D01*
X005305Y008777D01*
X005305Y008777D01*
X005355Y008777D01*
X005355Y008777D01*
X005564Y008691D01*
X005564Y008691D01*
X005725Y008530D01*
X005725Y008530D01*
X005795Y008361D01*
X005991Y008165D01*
X005991Y007750D01*
X005768Y007527D01*
X008178Y007527D01*
X008241Y007527D01*
X008305Y007527D01*
X008404Y007527D01*
X008405Y007527D01*
X008706Y007403D01*
X008706Y007403D01*
X008937Y007172D01*
X008937Y007172D01*
X008996Y007027D01*
X009104Y007027D01*
X009284Y007207D01*
X009699Y007207D01*
X009991Y006915D01*
X009991Y006500D01*
X009699Y006207D01*
X009284Y006207D01*
X009104Y006387D01*
X009061Y006387D01*
X009061Y005807D01*
X009204Y005665D01*
X009204Y005250D01*
X009100Y005146D01*
X009223Y004977D01*
X009395Y004852D01*
X009598Y004786D01*
X009704Y004777D01*
X010428Y004777D01*
X010473Y004777D01*
X010491Y004777D01*
X010598Y004786D01*
X010800Y004852D01*
X010972Y004977D01*
X011097Y005149D01*
X011163Y005351D01*
X011171Y005457D01*
X011171Y005521D01*
X011171Y010765D01*
X011167Y010767D01*
X011021Y010913D01*
X010941Y011104D01*
X010941Y011311D01*
X011021Y011502D01*
X011167Y011648D01*
X011310Y011707D01*
X011167Y011767D01*
X011021Y011913D01*
X010941Y012104D01*
X010941Y012311D01*
X011021Y012502D01*
X011167Y012648D01*
X011358Y012727D01*
X012125Y012727D01*
X012316Y012648D01*
X012437Y012527D01*
X012626Y012527D01*
X012626Y012566D01*
X013133Y013072D01*
X013171Y013072D01*
X013171Y014342D01*
X013133Y014342D01*
X012626Y014849D01*
X012626Y015566D01*
X013133Y016072D01*
X013850Y016072D01*
X014356Y015566D01*
X014356Y014849D01*
X013850Y014342D01*
X013811Y014342D01*
X013811Y013072D01*
X013850Y013072D01*
X014356Y012566D01*
X014356Y011849D01*
X013850Y011342D01*
X013133Y011342D01*
X012626Y011849D01*
X012626Y011887D01*
X012437Y011887D01*
X012316Y011767D01*
X012173Y011707D01*
X012316Y011648D01*
X012462Y011502D01*
X012541Y011311D01*
X012541Y011104D01*
X012462Y010913D01*
X012316Y010767D01*
X012125Y010687D01*
X011811Y010687D01*
X011811Y005521D01*
X011811Y005457D01*
X011811Y005456D01*
X011811Y005394D01*
X011811Y005394D01*
X011811Y005248D01*
X011811Y005248D01*
X011682Y004851D01*
X011682Y004851D01*
X011436Y004513D01*
X011436Y004512D01*
X011436Y004512D01*
X011098Y004267D01*
X011098Y004267D01*
X010700Y004138D01*
X010700Y004138D01*
X010555Y004138D01*
X010555Y004137D01*
X010492Y004137D01*
X010491Y004137D01*
X010473Y004137D01*
X010428Y004137D01*
X009640Y004137D01*
X009640Y004138D01*
X009495Y004138D01*
X009097Y004267D01*
X009097Y004267D01*
X008759Y004512D01*
X008759Y004512D01*
X008513Y004851D01*
X008513Y004851D01*
X008470Y004985D01*
X008204Y005250D01*
X008204Y005665D01*
X008421Y005882D01*
X008421Y006644D01*
X008421Y006708D01*
X008418Y006743D01*
X008391Y006807D01*
X008341Y006857D01*
X008276Y006884D01*
X008241Y006887D01*
X008178Y006887D01*
X007931Y006887D01*
X007931Y006708D01*
X007492Y006708D01*
X007492Y006707D01*
X007931Y006707D01*
X007931Y006525D01*
X007674Y006267D01*
X007492Y006267D01*
X007492Y006707D01*
X007491Y006707D01*
X007491Y006267D01*
X007309Y006267D01*
X007051Y006525D01*
X007051Y006707D01*
X007491Y006707D01*
X007491Y006708D01*
X007051Y006708D01*
X007051Y006887D01*
X004928Y006887D01*
X004828Y006887D01*
X004828Y006887D01*
X004527Y007012D01*
X004527Y007012D01*
X004491Y007048D01*
X004491Y006750D01*
X004311Y006570D01*
X004311Y003957D01*
X004312Y003947D01*
X004321Y003927D01*
X004336Y003912D01*
X004356Y003904D01*
X004366Y003902D01*
X004369Y003902D01*
X004430Y003902D01*
X005849Y003902D01*
X005970Y003916D01*
X005971Y003916D01*
X006245Y003859D01*
X006245Y003859D01*
X006489Y003720D01*
X006489Y003720D01*
X006678Y003513D01*
X006678Y003513D01*
X006794Y003257D01*
X006794Y003257D01*
X006804Y003163D01*
X006811Y003146D01*
X006811Y003100D01*
X006816Y003055D01*
X006811Y003037D01*
X006811Y001957D01*
X006815Y001922D01*
X006842Y001857D01*
X006891Y001808D01*
X006956Y001781D01*
X006991Y001777D01*
X008317Y001777D01*
X008497Y001957D01*
X008911Y001957D01*
X009091Y001777D01*
X009604Y001777D01*
X009784Y001957D01*
X010199Y001957D01*
X010491Y001665D01*
X010491Y001250D01*
X010378Y001137D01*
X014872Y001137D01*
X020383Y001137D01*
X020413Y001137D01*
X020458Y001137D01*
X020658Y001149D01*
X021049Y001238D01*
X021409Y001412D01*
X021723Y001661D01*
X021972Y001974D01*
X022146Y002335D01*
X022235Y002726D01*
X022246Y002926D01*
X022246Y011119D01*
X022246Y015844D01*
X022246Y015859D01*
X022246Y015918D01*
X022235Y016118D01*
X022146Y016509D01*
X021972Y016870D01*
X021723Y017183D01*
X021409Y017432D01*
X021049Y017606D01*
X020658Y017695D01*
X020458Y017707D01*
X010493Y017707D01*
X004710Y017707D01*
X004510Y017695D01*
X004119Y017606D01*
X003758Y017432D01*
X003445Y017183D01*
X003196Y016870D01*
X003022Y016509D01*
X002933Y016118D01*
X002921Y015918D01*
X002921Y010332D01*
X002921Y003001D01*
X002921Y002926D01*
X002933Y002726D01*
X003022Y002335D01*
X003011Y002384D02*
X004831Y002384D01*
X004942Y002226D02*
X003074Y002226D01*
X003151Y002067D02*
X005141Y002067D01*
X005842Y002067D02*
X006171Y002067D01*
X006171Y001909D02*
X003248Y001909D01*
X003374Y001750D02*
X006190Y001750D01*
X006255Y001592D02*
X003533Y001592D01*
X003731Y001433D02*
X006356Y001433D01*
X006515Y001275D02*
X004043Y001275D01*
X003691Y002543D02*
X002974Y002543D01*
X002938Y002701D02*
X003473Y002701D01*
X003471Y002703D02*
X003471Y002703D01*
X003357Y002860D02*
X002925Y002860D01*
X002921Y003019D02*
X003260Y003019D01*
X003208Y003177D02*
X002921Y003177D01*
X002921Y003336D02*
X003171Y003336D01*
X003171Y003494D02*
X002921Y003494D01*
X002921Y003653D02*
X003171Y003653D01*
X003171Y003811D02*
X002921Y003811D01*
X002921Y003970D02*
X003171Y003970D01*
X003171Y004128D02*
X002921Y004128D01*
X002921Y004287D02*
X003171Y004287D01*
X003171Y004445D02*
X002921Y004445D01*
X002921Y004604D02*
X003171Y004604D01*
X003171Y004763D02*
X002921Y004763D01*
X002921Y004921D02*
X003171Y004921D01*
X003171Y005080D02*
X002921Y005080D01*
X002921Y005238D02*
X003171Y005238D01*
X003171Y005397D02*
X002921Y005397D01*
X002921Y005555D02*
X003171Y005555D01*
X003171Y005714D02*
X002921Y005714D01*
X002921Y005872D02*
X003171Y005872D01*
X003171Y006031D02*
X002921Y006031D01*
X002921Y006189D02*
X003171Y006189D01*
X003171Y006348D02*
X002921Y006348D01*
X002921Y006506D02*
X003171Y006506D01*
X003171Y006665D02*
X002921Y006665D01*
X002921Y006824D02*
X003171Y006824D01*
X003171Y006982D02*
X002921Y006982D01*
X002921Y007141D02*
X003171Y007141D01*
X003171Y007299D02*
X002921Y007299D01*
X002921Y007458D02*
X003034Y007458D01*
X002991Y007616D02*
X002921Y007616D01*
X002921Y007775D02*
X002991Y007775D01*
X003010Y007933D02*
X002921Y007933D01*
X002921Y008092D02*
X003169Y008092D01*
X003171Y008250D02*
X002921Y008250D01*
X002921Y008409D02*
X003208Y008409D01*
X003296Y008568D02*
X002921Y008568D01*
X002921Y008726D02*
X003504Y008726D01*
X003466Y008792D02*
X004017Y008792D01*
X004362Y009137D01*
X004371Y009137D01*
X004716Y008792D01*
X005267Y008792D01*
X005656Y009182D01*
X005656Y009733D01*
X005267Y010122D01*
X004716Y010122D01*
X004371Y009777D01*
X004362Y009777D01*
X004017Y010122D01*
X003863Y010122D01*
X003991Y010250D01*
X003991Y010665D01*
X003699Y010957D01*
X003284Y010957D01*
X002991Y010665D01*
X002991Y010250D01*
X003171Y010070D01*
X003171Y009828D01*
X003076Y009733D01*
X003076Y009182D01*
X003466Y008792D01*
X003374Y008885D02*
X002921Y008885D01*
X002921Y009043D02*
X003215Y009043D01*
X003076Y009202D02*
X002921Y009202D01*
X002921Y009360D02*
X003076Y009360D01*
X003076Y009519D02*
X002921Y009519D01*
X002921Y009677D02*
X003076Y009677D01*
X003171Y009836D02*
X002921Y009836D01*
X002921Y009994D02*
X003171Y009994D01*
X003089Y010153D02*
X002921Y010153D01*
X002921Y010312D02*
X002991Y010312D01*
X002991Y010470D02*
X002921Y010470D01*
X002921Y010629D02*
X002991Y010629D01*
X002921Y010787D02*
X003114Y010787D01*
X003273Y010946D02*
X002921Y010946D01*
X002921Y011104D02*
X004991Y011104D01*
X004991Y011165D02*
X004991Y010750D01*
X005284Y010457D01*
X005699Y010457D01*
X005879Y010637D01*
X006178Y010637D01*
X008055Y010637D01*
X008154Y010637D01*
X008155Y010637D01*
X008171Y010644D01*
X008171Y010394D01*
X008171Y010394D01*
X008171Y010288D01*
X008276Y009966D01*
X008276Y009966D01*
X008475Y009691D01*
X008475Y009691D01*
X008475Y009691D01*
X008749Y009492D01*
X009034Y009207D01*
X009449Y009207D01*
X009741Y009500D01*
X009741Y009915D01*
X009449Y010207D01*
X009034Y010207D01*
X008962Y010135D01*
X008937Y010153D01*
X008858Y010262D01*
X008817Y010390D01*
X008811Y010457D01*
X008811Y010765D01*
X009059Y010517D01*
X009241Y010517D01*
X009241Y010957D01*
X009242Y010957D01*
X009242Y010958D01*
X009681Y010958D01*
X009681Y011140D01*
X009424Y011397D01*
X009242Y011397D01*
X009242Y010958D01*
X009241Y010958D01*
X009241Y011397D01*
X009059Y011397D01*
X008991Y011330D01*
X008991Y011500D01*
X009034Y011457D01*
X009449Y011457D01*
X009629Y011637D01*
X009741Y011637D01*
X009809Y011632D01*
X009937Y011591D01*
X010045Y011512D01*
X010125Y011403D01*
X010166Y011275D01*
X010171Y011207D01*
X010171Y011165D01*
X010171Y011144D01*
X010171Y005957D01*
X009784Y005957D01*
X009491Y005665D01*
X009491Y005250D01*
X009784Y004957D01*
X010199Y004957D01*
X010491Y005250D01*
X010491Y005298D01*
X010686Y005493D01*
X010687Y005493D01*
X010811Y005794D01*
X010811Y005794D01*
X010811Y005894D01*
X010811Y011144D01*
X010811Y011165D01*
X010811Y011271D01*
X010811Y011377D01*
X010707Y011699D01*
X010707Y011699D01*
X010507Y011973D01*
X010507Y011973D01*
X010233Y012173D01*
X009911Y012277D01*
X009805Y012277D01*
X009805Y012277D01*
X009629Y012277D01*
X009449Y012457D01*
X009061Y012457D01*
X009061Y012509D01*
X009061Y012521D01*
X009061Y014021D01*
X009061Y015637D01*
X011354Y015637D01*
X011534Y015457D01*
X011921Y015457D01*
X011921Y015271D01*
X011921Y015207D01*
X011534Y015207D01*
X011241Y014915D01*
X011241Y014500D01*
X011534Y014207D01*
X011949Y014207D01*
X012241Y014500D01*
X012241Y014548D01*
X012437Y014743D01*
X012561Y015044D01*
X012561Y015044D01*
X012561Y015207D01*
X012561Y015271D01*
X012561Y016394D01*
X012561Y016457D01*
X012561Y016621D01*
X012437Y016922D01*
X012231Y017128D01*
X012180Y017250D01*
X012034Y017396D01*
X011844Y017475D01*
X011639Y017475D01*
X011448Y017396D01*
X011303Y017250D01*
X011224Y017060D01*
X011224Y016855D01*
X011303Y016665D01*
X011448Y016519D01*
X011597Y016457D01*
X011534Y016457D01*
X011354Y016277D01*
X009061Y016277D01*
X009061Y016546D01*
X009180Y016665D01*
X009259Y016855D01*
X009259Y017060D01*
X009180Y017250D01*
X009034Y017396D01*
X008844Y017475D01*
X008639Y017475D01*
X008448Y017396D01*
X008303Y017250D01*
X008224Y017060D01*
X008224Y016855D01*
X008303Y016665D01*
X008421Y016546D01*
X008421Y016021D01*
X008421Y014021D01*
X008421Y012521D01*
X008421Y012509D01*
X008421Y012394D01*
X008421Y012294D01*
X008546Y011993D01*
X008582Y011957D01*
X008284Y011957D01*
X007991Y011665D01*
X007991Y011277D01*
X006741Y011277D01*
X006741Y011665D01*
X006561Y011845D01*
X006561Y012872D01*
X006580Y012904D01*
X006719Y013060D01*
X006719Y013060D01*
X006892Y013175D01*
X007090Y013241D01*
X007242Y013250D01*
X007534Y012957D01*
X007949Y012957D01*
X008241Y013250D01*
X008241Y013665D01*
X008061Y013845D01*
X008061Y014320D01*
X008241Y014500D01*
X008241Y014915D01*
X007949Y015207D01*
X007573Y015207D01*
X007706Y015262D01*
X007901Y015457D01*
X007949Y015457D01*
X008241Y015750D01*
X008241Y016165D01*
X007949Y016457D01*
X007534Y016457D01*
X007241Y016165D01*
X007241Y015777D01*
X004614Y015777D01*
X004600Y015811D01*
X004425Y015986D01*
X004196Y016081D01*
X003947Y016081D01*
X003718Y015986D01*
X003543Y015811D01*
X003508Y015728D01*
X003419Y015691D01*
X003419Y015691D01*
X003258Y015530D01*
X003171Y015321D01*
X003171Y015271D01*
X003171Y015211D01*
X003171Y015207D01*
X003171Y015144D01*
X003171Y014845D01*
X002991Y014665D01*
X002991Y014250D01*
X003171Y014070D01*
X003171Y014021D01*
X003171Y014013D01*
X003171Y013894D01*
X003171Y013696D01*
X003288Y013186D01*
X003515Y012715D01*
X003841Y012307D01*
X004249Y011981D01*
X004249Y011981D01*
X004720Y011754D01*
X005067Y011675D01*
X005284Y011457D01*
X004991Y011165D01*
X005090Y011263D02*
X002921Y011263D01*
X002921Y011421D02*
X005248Y011421D01*
X005284Y011457D02*
X005699Y011457D01*
X005741Y011414D01*
X005741Y011500D01*
X005699Y011457D01*
X005284Y011457D01*
X005162Y011580D02*
X002921Y011580D01*
X002921Y011738D02*
X004788Y011738D01*
X004423Y011897D02*
X002921Y011897D01*
X002921Y012056D02*
X004155Y012056D01*
X003957Y012214D02*
X002921Y012214D01*
X002921Y012373D02*
X003788Y012373D01*
X003841Y012307D02*
X003841Y012307D01*
X003661Y012531D02*
X002921Y012531D01*
X002921Y012690D02*
X003535Y012690D01*
X003515Y012715D02*
X003515Y012715D01*
X003451Y012848D02*
X002921Y012848D01*
X002921Y013007D02*
X003374Y013007D01*
X003298Y013165D02*
X002921Y013165D01*
X002921Y013324D02*
X003256Y013324D01*
X003288Y013186D02*
X003288Y013186D01*
X003220Y013482D02*
X002921Y013482D01*
X002921Y013641D02*
X003184Y013641D01*
X003171Y013696D02*
X003171Y013696D01*
X003171Y013799D02*
X002921Y013799D01*
X002921Y013958D02*
X003171Y013958D01*
X003125Y014117D02*
X002921Y014117D01*
X002921Y014275D02*
X002991Y014275D01*
X002991Y014434D02*
X002921Y014434D01*
X002921Y014592D02*
X002991Y014592D01*
X002921Y014751D02*
X003078Y014751D01*
X003171Y014909D02*
X002921Y014909D01*
X002921Y015068D02*
X003171Y015068D01*
X003171Y015226D02*
X002921Y015226D01*
X002921Y015385D02*
X003198Y015385D01*
X003171Y015321D02*
X003171Y015321D01*
X003171Y015271D02*
X003171Y015271D01*
X003258Y015530D02*
X003258Y015530D01*
X003271Y015543D02*
X002921Y015543D01*
X002921Y015702D02*
X003446Y015702D01*
X003592Y015861D02*
X002921Y015861D01*
X002927Y016019D02*
X003797Y016019D01*
X004346Y016019D02*
X007241Y016019D01*
X007741Y015957D02*
X007739Y015913D01*
X007733Y015870D01*
X007724Y015828D01*
X007711Y015786D01*
X007694Y015746D01*
X007674Y015707D01*
X007651Y015670D01*
X007624Y015636D01*
X007595Y015603D01*
X007562Y015574D01*
X007528Y015547D01*
X007491Y015524D01*
X007452Y015504D01*
X007412Y015487D01*
X007370Y015474D01*
X007328Y015465D01*
X007285Y015459D01*
X007241Y015457D01*
X004071Y015457D01*
X003741Y015457D01*
X003711Y015455D01*
X003681Y015450D01*
X003652Y015441D01*
X003625Y015428D01*
X003599Y015413D01*
X003575Y015394D01*
X003554Y015373D01*
X003535Y015349D01*
X003520Y015323D01*
X003507Y015296D01*
X003498Y015267D01*
X003493Y015237D01*
X003491Y015207D01*
X003491Y014457D01*
X003491Y013957D01*
X003811Y013957D02*
X003822Y013769D01*
X003906Y013403D01*
X004069Y013064D01*
X004303Y012769D01*
X004598Y012535D01*
X004936Y012372D01*
X005150Y012323D01*
X005284Y012457D01*
X005699Y012457D01*
X005921Y012234D01*
X005921Y012906D01*
X005918Y012917D01*
X005921Y012969D01*
X005921Y013021D01*
X005926Y013032D01*
X005927Y013044D01*
X005950Y013090D01*
X005970Y013139D01*
X005979Y013147D01*
X006040Y013270D01*
X006040Y013270D01*
X006291Y013553D01*
X006607Y013762D01*
X006607Y013762D01*
X006966Y013882D01*
X006966Y013882D01*
X007344Y013904D01*
X007344Y013904D01*
X007421Y013888D01*
X007421Y014320D01*
X007241Y014500D01*
X007241Y014915D01*
X007507Y015180D01*
X007405Y015137D01*
X007404Y015137D01*
X007305Y015137D01*
X004614Y015137D01*
X004600Y015104D01*
X004425Y014929D01*
X004196Y014834D01*
X003947Y014834D01*
X003811Y014890D01*
X003811Y014845D01*
X003991Y014665D01*
X003991Y014250D01*
X003811Y014070D01*
X003811Y014021D01*
X003811Y014013D01*
X003811Y013957D01*
X003811Y013958D02*
X004933Y013958D01*
X004928Y013989D02*
X004941Y013905D01*
X004969Y013821D01*
X005009Y013742D01*
X005061Y013670D01*
X005124Y013607D01*
X005196Y013555D01*
X005275Y013515D01*
X005359Y013488D01*
X005443Y013474D01*
X005443Y013989D01*
X005539Y013989D01*
X005539Y013474D01*
X005623Y013488D01*
X005708Y013515D01*
X005787Y013555D01*
X005859Y013607D01*
X005921Y013670D01*
X005974Y013742D01*
X006014Y013821D01*
X006041Y013905D01*
X006055Y013989D01*
X005540Y013989D01*
X005540Y014085D01*
X006055Y014085D01*
X006041Y014170D01*
X006014Y014254D01*
X005974Y014333D01*
X005921Y014405D01*
X005859Y014468D01*
X005787Y014520D01*
X005708Y014560D01*
X005623Y014587D01*
X005539Y014601D01*
X005539Y014086D01*
X005443Y014086D01*
X005443Y014601D01*
X005359Y014587D01*
X005275Y014560D01*
X005196Y014520D01*
X005124Y014468D01*
X005061Y014405D01*
X005009Y014333D01*
X004969Y014254D01*
X004941Y014170D01*
X004928Y014085D01*
X005443Y014085D01*
X005443Y013989D01*
X004928Y013989D01*
X004933Y014117D02*
X003858Y014117D01*
X003991Y014275D02*
X004980Y014275D01*
X005090Y014434D02*
X003991Y014434D01*
X003991Y014592D02*
X005390Y014592D01*
X005443Y014592D02*
X005539Y014592D01*
X005593Y014592D02*
X007241Y014592D01*
X007241Y014751D02*
X003905Y014751D01*
X004378Y014909D02*
X007241Y014909D01*
X007395Y015068D02*
X004564Y015068D01*
X004551Y015861D02*
X007241Y015861D01*
X007254Y016178D02*
X002946Y016178D01*
X002982Y016336D02*
X005168Y016336D01*
X005138Y016349D02*
X005367Y016254D01*
X005616Y016254D01*
X005845Y016349D01*
X006020Y016524D01*
X006115Y016753D01*
X006115Y017002D01*
X006020Y017231D01*
X005845Y017406D01*
X005616Y017501D01*
X005367Y017501D01*
X005138Y017406D01*
X004963Y017231D01*
X004868Y017002D01*
X004868Y016753D01*
X004963Y016524D01*
X005138Y016349D01*
X004992Y016495D02*
X003019Y016495D01*
X003091Y016653D02*
X004909Y016653D01*
X004868Y016812D02*
X003168Y016812D01*
X003276Y016970D02*
X004868Y016970D01*
X004920Y017129D02*
X003402Y017129D01*
X003576Y017287D02*
X005019Y017287D01*
X005234Y017446D02*
X003786Y017446D01*
X004116Y017605D02*
X021052Y017605D01*
X021381Y017446D02*
X011913Y017446D01*
X012143Y017287D02*
X021591Y017287D01*
X021766Y017129D02*
X012230Y017129D01*
X012388Y016970D02*
X021892Y016970D01*
X022000Y016812D02*
X012482Y016812D01*
X012437Y016922D02*
X012437Y016922D01*
X012548Y016653D02*
X022076Y016653D01*
X022149Y016495D02*
X018530Y016495D01*
X018516Y016497D02*
X017967Y016497D01*
X017428Y016390D01*
X016920Y016180D01*
X016463Y015875D01*
X016074Y015486D01*
X015769Y015029D01*
X015559Y014521D01*
X015451Y013982D01*
X015451Y013433D01*
X015559Y012894D01*
X015769Y012386D01*
X016074Y011929D01*
X016463Y011540D01*
X016920Y011235D01*
X017428Y011025D01*
X017967Y010917D01*
X018516Y010917D01*
X019055Y011025D01*
X019563Y011235D01*
X020020Y011540D01*
X020158Y011679D01*
X020159Y011674D01*
X020171Y011457D01*
X020171Y011405D01*
X020171Y011394D01*
X020171Y007572D01*
X020133Y007572D01*
X019626Y007066D01*
X019626Y006349D01*
X020133Y005842D01*
X020171Y005842D01*
X020171Y004572D01*
X020133Y004572D01*
X019626Y004066D01*
X019626Y003349D01*
X020133Y002842D01*
X020850Y002842D01*
X021356Y003349D01*
X021356Y004066D01*
X020850Y004572D01*
X020811Y004572D01*
X020811Y005842D01*
X020850Y005842D01*
X021356Y006349D01*
X021356Y007066D01*
X020850Y007572D01*
X020811Y007572D01*
X020811Y011394D01*
X020811Y011405D01*
X020811Y011521D01*
X020811Y011747D01*
X020683Y012312D01*
X020675Y012328D01*
X020714Y012386D01*
X020924Y012894D01*
X021031Y013433D01*
X021031Y013982D01*
X020924Y014521D01*
X020714Y015029D01*
X020409Y015486D01*
X020020Y015875D01*
X019563Y016180D01*
X019055Y016390D01*
X018516Y016497D01*
X017953Y016495D02*
X012561Y016495D01*
X012561Y016621D02*
X012561Y016621D01*
X012561Y016336D02*
X017297Y016336D01*
X016916Y016178D02*
X012561Y016178D01*
X012561Y016019D02*
X013080Y016019D01*
X012921Y015861D02*
X012561Y015861D01*
X012561Y015702D02*
X012763Y015702D01*
X012626Y015543D02*
X012561Y015543D01*
X012561Y015385D02*
X012626Y015385D01*
X012626Y015226D02*
X012561Y015226D01*
X012561Y015068D02*
X012626Y015068D01*
X012626Y014909D02*
X012505Y014909D01*
X012440Y014751D02*
X012725Y014751D01*
X012883Y014592D02*
X012286Y014592D01*
X012175Y014434D02*
X013042Y014434D01*
X013171Y014275D02*
X012016Y014275D01*
X011924Y013897D02*
X011742Y013897D01*
X011742Y013458D01*
X012181Y013458D01*
X012181Y013640D01*
X011924Y013897D01*
X012022Y013799D02*
X013171Y013799D01*
X013171Y013641D02*
X012180Y013641D01*
X012181Y013482D02*
X013171Y013482D01*
X013171Y013324D02*
X012181Y013324D01*
X012181Y013275D02*
X012181Y013457D01*
X011742Y013457D01*
X011742Y013458D01*
X011741Y013458D01*
X011741Y013897D01*
X011559Y013897D01*
X011301Y013640D01*
X011301Y013458D01*
X011741Y013458D01*
X011741Y013457D01*
X011742Y013457D01*
X011742Y013017D01*
X011924Y013017D01*
X012181Y013275D01*
X012071Y013165D02*
X013171Y013165D01*
X013067Y013007D02*
X009061Y013007D01*
X009061Y013165D02*
X011411Y013165D01*
X011301Y013275D02*
X011559Y013017D01*
X011741Y013017D01*
X011741Y013457D01*
X011301Y013457D01*
X011301Y013275D01*
X011301Y013324D02*
X009061Y013324D01*
X009061Y013482D02*
X011301Y013482D01*
X011303Y013641D02*
X009061Y013641D01*
X009061Y013799D02*
X011461Y013799D01*
X011741Y013799D02*
X011742Y013799D01*
X011741Y013641D02*
X011742Y013641D01*
X011741Y013482D02*
X011742Y013482D01*
X011741Y013324D02*
X011742Y013324D01*
X011741Y013165D02*
X011742Y013165D01*
X012216Y012690D02*
X012750Y012690D01*
X012626Y012531D02*
X012433Y012531D01*
X012909Y012848D02*
X009061Y012848D01*
X009061Y012690D02*
X011267Y012690D01*
X011050Y012531D02*
X009061Y012531D01*
X008741Y012457D02*
X008743Y012413D01*
X008749Y012370D01*
X008758Y012328D01*
X008771Y012286D01*
X008788Y012246D01*
X008808Y012207D01*
X008831Y012170D01*
X008858Y012136D01*
X008887Y012103D01*
X008920Y012074D01*
X008954Y012047D01*
X008991Y012024D01*
X009030Y012004D01*
X009070Y011987D01*
X009112Y011974D01*
X009154Y011965D01*
X009197Y011959D01*
X009241Y011957D01*
X009741Y011957D01*
X009911Y012277D02*
X009911Y012277D01*
X010106Y012214D02*
X010941Y012214D01*
X010961Y012056D02*
X010394Y012056D01*
X010507Y011973D02*
X010507Y011973D01*
X010563Y011897D02*
X011037Y011897D01*
X011235Y011738D02*
X010678Y011738D01*
X010745Y011580D02*
X011098Y011580D01*
X010987Y011421D02*
X010797Y011421D01*
X010811Y011377D02*
X010811Y011377D01*
X010811Y011271D02*
X010811Y011271D01*
X010811Y011263D02*
X010941Y011263D01*
X010941Y011104D02*
X010811Y011104D01*
X010811Y010946D02*
X011007Y010946D01*
X011146Y010787D02*
X010811Y010787D01*
X010811Y010629D02*
X011171Y010629D01*
X011171Y010470D02*
X010811Y010470D01*
X010811Y010312D02*
X011171Y010312D01*
X011171Y010153D02*
X010811Y010153D01*
X010811Y009994D02*
X011171Y009994D01*
X011171Y009836D02*
X010811Y009836D01*
X010811Y009677D02*
X011171Y009677D01*
X011171Y009519D02*
X010811Y009519D01*
X010811Y009360D02*
X011171Y009360D01*
X011171Y009202D02*
X010811Y009202D01*
X010811Y009043D02*
X011171Y009043D01*
X011171Y008885D02*
X010811Y008885D01*
X010811Y008726D02*
X011171Y008726D01*
X011171Y008568D02*
X010811Y008568D01*
X010811Y008409D02*
X011171Y008409D01*
X011171Y008250D02*
X010811Y008250D01*
X010811Y008092D02*
X011171Y008092D01*
X011171Y007933D02*
X010811Y007933D01*
X010811Y007775D02*
X011171Y007775D01*
X011171Y007616D02*
X010811Y007616D01*
X010811Y007458D02*
X011171Y007458D01*
X011171Y007299D02*
X010811Y007299D01*
X010811Y007141D02*
X011171Y007141D01*
X011171Y006982D02*
X010811Y006982D01*
X010811Y006824D02*
X011171Y006824D01*
X011171Y006665D02*
X010811Y006665D01*
X010811Y006506D02*
X011171Y006506D01*
X011171Y006348D02*
X010811Y006348D01*
X010811Y006189D02*
X011171Y006189D01*
X011171Y006031D02*
X010811Y006031D01*
X010811Y005872D02*
X011171Y005872D01*
X011171Y005714D02*
X010778Y005714D01*
X010712Y005555D02*
X011171Y005555D01*
X011167Y005397D02*
X010590Y005397D01*
X011491Y005457D02*
X011489Y005397D01*
X011484Y005336D01*
X011475Y005277D01*
X011462Y005218D01*
X011446Y005159D01*
X011426Y005102D01*
X011403Y005047D01*
X011376Y004992D01*
X011347Y004940D01*
X011314Y004889D01*
X011278Y004840D01*
X011240Y004794D01*
X011198Y004750D01*
X011154Y004708D01*
X011108Y004670D01*
X011059Y004634D01*
X011008Y004601D01*
X010956Y004572D01*
X010901Y004545D01*
X010846Y004522D01*
X010789Y004502D01*
X010730Y004486D01*
X010671Y004473D01*
X010612Y004464D01*
X010551Y004459D01*
X010491Y004457D01*
X009704Y004457D01*
X009300Y004921D02*
X010896Y004921D01*
X011047Y005080D02*
X010321Y005080D01*
X010479Y005238D02*
X011126Y005238D01*
X011491Y005457D02*
X011491Y010957D01*
X011493Y010987D01*
X011498Y011017D01*
X011507Y011046D01*
X011520Y011073D01*
X011535Y011099D01*
X011554Y011123D01*
X011575Y011144D01*
X011599Y011163D01*
X011625Y011178D01*
X011652Y011191D01*
X011681Y011200D01*
X011711Y011205D01*
X011741Y011207D01*
X011741Y012207D01*
X013491Y012207D01*
X013491Y015207D01*
X014099Y014592D02*
X015588Y014592D01*
X015541Y014434D02*
X013941Y014434D01*
X013811Y014275D02*
X015510Y014275D01*
X015478Y014117D02*
X013811Y014117D01*
X013811Y013958D02*
X015451Y013958D01*
X015451Y013799D02*
X013811Y013799D01*
X013811Y013641D02*
X015451Y013641D01*
X015451Y013482D02*
X013811Y013482D01*
X013811Y013324D02*
X015473Y013324D01*
X015505Y013165D02*
X013811Y013165D01*
X013915Y013007D02*
X015536Y013007D01*
X015577Y012848D02*
X014074Y012848D01*
X014232Y012690D02*
X015643Y012690D01*
X015709Y012531D02*
X014356Y012531D01*
X014356Y012373D02*
X015778Y012373D01*
X015884Y012214D02*
X014356Y012214D01*
X014356Y012056D02*
X015990Y012056D01*
X016106Y011897D02*
X014356Y011897D01*
X014246Y011738D02*
X016265Y011738D01*
X016423Y011580D02*
X014087Y011580D01*
X013929Y011421D02*
X016641Y011421D01*
X016878Y011263D02*
X012541Y011263D01*
X012541Y011104D02*
X017235Y011104D01*
X017825Y010946D02*
X012476Y010946D01*
X012336Y010787D02*
X020171Y010787D01*
X020171Y010629D02*
X011811Y010629D01*
X011811Y010470D02*
X020171Y010470D01*
X020171Y010312D02*
X011811Y010312D01*
X011811Y010153D02*
X020171Y010153D01*
X020171Y009994D02*
X013577Y009994D01*
X013681Y009890D02*
X013424Y010147D01*
X013242Y010147D01*
X013242Y009708D01*
X013681Y009708D01*
X013681Y009890D01*
X013681Y009836D02*
X020171Y009836D01*
X020171Y009677D02*
X013681Y009677D01*
X013681Y009707D02*
X013242Y009707D01*
X013242Y009708D01*
X013241Y009708D01*
X013241Y010147D01*
X013059Y010147D01*
X012801Y009890D01*
X012801Y009708D01*
X013241Y009708D01*
X013241Y009707D01*
X013242Y009707D01*
X013242Y009267D01*
X013424Y009267D01*
X013681Y009525D01*
X013681Y009707D01*
X013675Y009519D02*
X020171Y009519D01*
X020171Y009360D02*
X013516Y009360D01*
X013242Y009360D02*
X013241Y009360D01*
X013241Y009267D02*
X013241Y009707D01*
X012801Y009707D01*
X012801Y009525D01*
X013059Y009267D01*
X013241Y009267D01*
X013241Y009519D02*
X013242Y009519D01*
X013241Y009677D02*
X013242Y009677D01*
X013241Y009836D02*
X013242Y009836D01*
X013241Y009994D02*
X013242Y009994D01*
X012906Y009994D02*
X011811Y009994D01*
X011811Y009836D02*
X012801Y009836D01*
X012801Y009677D02*
X011811Y009677D01*
X011811Y009519D02*
X012808Y009519D01*
X012966Y009360D02*
X011811Y009360D01*
X011811Y009202D02*
X020171Y009202D01*
X020171Y009043D02*
X011811Y009043D01*
X011811Y008885D02*
X020171Y008885D01*
X020171Y008726D02*
X011811Y008726D01*
X011811Y008568D02*
X020171Y008568D01*
X020171Y008409D02*
X011811Y008409D01*
X011811Y008250D02*
X020171Y008250D01*
X020171Y008092D02*
X011811Y008092D01*
X011811Y007933D02*
X020171Y007933D01*
X020171Y007775D02*
X011811Y007775D01*
X011811Y007616D02*
X020171Y007616D01*
X020018Y007458D02*
X011811Y007458D01*
X011811Y007299D02*
X019860Y007299D01*
X019701Y007141D02*
X011811Y007141D01*
X011811Y006982D02*
X019626Y006982D01*
X019626Y006824D02*
X011811Y006824D01*
X011811Y006665D02*
X019626Y006665D01*
X019626Y006506D02*
X011811Y006506D01*
X011811Y006348D02*
X019628Y006348D01*
X019786Y006189D02*
X011811Y006189D01*
X011811Y006031D02*
X019945Y006031D01*
X020103Y005872D02*
X011811Y005872D01*
X011811Y005714D02*
X020171Y005714D01*
X020171Y005555D02*
X011811Y005555D01*
X011811Y005397D02*
X020171Y005397D01*
X020171Y005238D02*
X011808Y005238D01*
X011756Y005080D02*
X020171Y005080D01*
X020171Y004921D02*
X011705Y004921D01*
X011618Y004763D02*
X020171Y004763D01*
X020171Y004604D02*
X011503Y004604D01*
X011344Y004445D02*
X020006Y004445D01*
X019848Y004287D02*
X011126Y004287D01*
X010687Y005493D02*
X010687Y005493D01*
X010491Y005957D02*
X010491Y011207D01*
X010167Y011263D02*
X009558Y011263D01*
X009741Y011957D02*
X009795Y011955D01*
X009848Y011949D01*
X009900Y011940D01*
X009952Y011927D01*
X010003Y011910D01*
X010053Y011889D01*
X010100Y011865D01*
X010146Y011838D01*
X010190Y011807D01*
X010232Y011774D01*
X010271Y011737D01*
X010308Y011698D01*
X010341Y011656D01*
X010372Y011612D01*
X010399Y011566D01*
X010423Y011519D01*
X010444Y011469D01*
X010461Y011418D01*
X010474Y011366D01*
X010483Y011314D01*
X010489Y011261D01*
X010491Y011207D01*
X010171Y011104D02*
X009681Y011104D01*
X009681Y010957D02*
X009242Y010957D01*
X009242Y010517D01*
X009424Y010517D01*
X009681Y010775D01*
X009681Y010957D01*
X009681Y010946D02*
X010171Y010946D01*
X010171Y010787D02*
X009681Y010787D01*
X009535Y010629D02*
X010171Y010629D01*
X010171Y010470D02*
X008811Y010470D01*
X008811Y010629D02*
X008948Y010629D01*
X009241Y010629D02*
X009242Y010629D01*
X009241Y010787D02*
X009242Y010787D01*
X009241Y010946D02*
X009242Y010946D01*
X009241Y011104D02*
X009242Y011104D01*
X009241Y011263D02*
X009242Y011263D01*
X008991Y011421D02*
X010111Y011421D01*
X009951Y011580D02*
X009571Y011580D01*
X010233Y012173D02*
X010233Y012173D01*
X009533Y012373D02*
X010967Y012373D01*
X012248Y011738D02*
X012737Y011738D01*
X012896Y011580D02*
X012384Y011580D01*
X012496Y011421D02*
X013054Y011421D01*
X010171Y010312D02*
X008842Y010312D01*
X008938Y010153D02*
X008980Y010153D01*
X009241Y009707D02*
X009187Y009709D01*
X009134Y009715D01*
X009082Y009724D01*
X009030Y009737D01*
X008979Y009754D01*
X008929Y009775D01*
X008882Y009799D01*
X008836Y009826D01*
X008792Y009857D01*
X008750Y009890D01*
X008711Y009927D01*
X008674Y009966D01*
X008641Y010008D01*
X008610Y010052D01*
X008583Y010098D01*
X008559Y010145D01*
X008538Y010195D01*
X008521Y010246D01*
X008508Y010298D01*
X008499Y010350D01*
X008493Y010403D01*
X008491Y010457D01*
X008491Y011457D01*
X008489Y011413D01*
X008483Y011370D01*
X008474Y011328D01*
X008461Y011286D01*
X008444Y011246D01*
X008424Y011207D01*
X008401Y011170D01*
X008374Y011136D01*
X008345Y011103D01*
X008312Y011074D01*
X008278Y011047D01*
X008241Y011024D01*
X008202Y011004D01*
X008162Y010987D01*
X008120Y010974D01*
X008078Y010965D01*
X008035Y010959D01*
X007991Y010957D01*
X006241Y010957D01*
X006741Y010957D01*
X006741Y011421D02*
X007991Y011421D01*
X007991Y011580D02*
X006741Y011580D01*
X006668Y011738D02*
X008065Y011738D01*
X008224Y011897D02*
X006561Y011897D01*
X006561Y012056D02*
X008520Y012056D01*
X008546Y011993D02*
X008546Y011993D01*
X008455Y012214D02*
X006561Y012214D01*
X006561Y012373D02*
X008421Y012373D01*
X008421Y012294D02*
X008421Y012294D01*
X008741Y012457D02*
X008741Y013957D01*
X008741Y015957D01*
X011741Y015957D01*
X011448Y015543D02*
X009061Y015543D01*
X009061Y015385D02*
X011921Y015385D01*
X011921Y015226D02*
X009061Y015226D01*
X009061Y015068D02*
X011395Y015068D01*
X011241Y014909D02*
X009061Y014909D01*
X009061Y014751D02*
X011241Y014751D01*
X011241Y014592D02*
X009061Y014592D01*
X009061Y014434D02*
X011308Y014434D01*
X011467Y014275D02*
X009061Y014275D01*
X009061Y014117D02*
X013171Y014117D01*
X013171Y013958D02*
X009061Y013958D01*
X008421Y013958D02*
X008061Y013958D01*
X008061Y014117D02*
X008421Y014117D01*
X008421Y014275D02*
X008061Y014275D01*
X008175Y014434D02*
X008421Y014434D01*
X008421Y014592D02*
X008241Y014592D01*
X008241Y014751D02*
X008421Y014751D01*
X008421Y014909D02*
X008241Y014909D01*
X008088Y015068D02*
X008421Y015068D01*
X008421Y015226D02*
X007619Y015226D01*
X007706Y015262D02*
X007706Y015262D01*
X007828Y015385D02*
X008421Y015385D01*
X008421Y015543D02*
X008034Y015543D01*
X008193Y015702D02*
X008421Y015702D01*
X008421Y015861D02*
X008241Y015861D01*
X008241Y016019D02*
X008421Y016019D01*
X008421Y016178D02*
X008228Y016178D01*
X008070Y016336D02*
X008421Y016336D01*
X008421Y016495D02*
X005991Y016495D01*
X006074Y016653D02*
X008314Y016653D01*
X008242Y016812D02*
X006115Y016812D01*
X006115Y016970D02*
X008224Y016970D01*
X008253Y017129D02*
X006063Y017129D01*
X005964Y017287D02*
X008340Y017287D01*
X008569Y017446D02*
X005749Y017446D01*
X005815Y016336D02*
X007413Y016336D01*
X008741Y015957D02*
X008741Y016957D01*
X009259Y016970D02*
X011224Y016970D01*
X011242Y016812D02*
X009241Y016812D01*
X009169Y016653D02*
X011314Y016653D01*
X011507Y016495D02*
X009061Y016495D01*
X009061Y016336D02*
X011413Y016336D01*
X011741Y016957D02*
X011785Y016955D01*
X011828Y016949D01*
X011870Y016940D01*
X011912Y016927D01*
X011952Y016910D01*
X011991Y016890D01*
X012028Y016867D01*
X012062Y016840D01*
X012095Y016811D01*
X012124Y016778D01*
X012151Y016744D01*
X012174Y016707D01*
X012194Y016668D01*
X012211Y016628D01*
X012224Y016586D01*
X012233Y016544D01*
X012239Y016501D01*
X012241Y016457D01*
X012241Y015207D01*
X012239Y015163D01*
X012233Y015120D01*
X012224Y015078D01*
X012211Y015036D01*
X012194Y014996D01*
X012174Y014957D01*
X012151Y014920D01*
X012124Y014886D01*
X012095Y014853D01*
X012062Y014824D01*
X012028Y014797D01*
X011991Y014774D01*
X011952Y014754D01*
X011912Y014737D01*
X011870Y014724D01*
X011828Y014715D01*
X011785Y014709D01*
X011741Y014707D01*
X012437Y014743D02*
X012437Y014743D01*
X013903Y016019D02*
X016679Y016019D01*
X016449Y015861D02*
X014062Y015861D01*
X014220Y015702D02*
X016290Y015702D01*
X016132Y015543D02*
X014356Y015543D01*
X014356Y015385D02*
X016007Y015385D01*
X015901Y015226D02*
X014356Y015226D01*
X014356Y015068D02*
X015795Y015068D01*
X015719Y014909D02*
X014356Y014909D01*
X014258Y014751D02*
X015654Y014751D01*
X019186Y016336D02*
X022185Y016336D01*
X022222Y016178D02*
X019566Y016178D01*
X019804Y016019D02*
X022241Y016019D01*
X022246Y015861D02*
X020034Y015861D01*
X020192Y015702D02*
X022246Y015702D01*
X022246Y015543D02*
X020351Y015543D01*
X020476Y015385D02*
X022246Y015385D01*
X022246Y015226D02*
X020582Y015226D01*
X020688Y015068D02*
X022246Y015068D01*
X022246Y014909D02*
X020763Y014909D01*
X020829Y014751D02*
X022246Y014751D01*
X022246Y014592D02*
X020895Y014592D01*
X020942Y014434D02*
X022246Y014434D01*
X022246Y014275D02*
X020973Y014275D01*
X021005Y014117D02*
X022246Y014117D01*
X022246Y013958D02*
X021031Y013958D01*
X021031Y013799D02*
X022246Y013799D01*
X022246Y013641D02*
X021031Y013641D01*
X021031Y013482D02*
X022246Y013482D01*
X022246Y013324D02*
X021010Y013324D01*
X020978Y013165D02*
X022246Y013165D01*
X022246Y013007D02*
X020947Y013007D01*
X020905Y012848D02*
X022246Y012848D01*
X022246Y012690D02*
X020840Y012690D01*
X020774Y012531D02*
X022246Y012531D01*
X022246Y012373D02*
X020705Y012373D01*
X020683Y012312D02*
X020683Y012312D01*
X020705Y012214D02*
X022246Y012214D01*
X022246Y012056D02*
X020741Y012056D01*
X020777Y011897D02*
X022246Y011897D01*
X022246Y011738D02*
X020811Y011738D01*
X020811Y011747D02*
X020811Y011747D01*
X020811Y011580D02*
X022246Y011580D01*
X022246Y011421D02*
X020811Y011421D01*
X020811Y011263D02*
X022246Y011263D01*
X022246Y011104D02*
X020811Y011104D01*
X020811Y010946D02*
X022246Y010946D01*
X022246Y010787D02*
X020811Y010787D01*
X020811Y010629D02*
X022246Y010629D01*
X022246Y010470D02*
X020811Y010470D01*
X020811Y010312D02*
X022246Y010312D01*
X022246Y010153D02*
X020811Y010153D01*
X020811Y009994D02*
X022246Y009994D01*
X022246Y009836D02*
X020811Y009836D01*
X020811Y009677D02*
X022246Y009677D01*
X022246Y009519D02*
X020811Y009519D01*
X020811Y009360D02*
X022246Y009360D01*
X022246Y009202D02*
X020811Y009202D01*
X020811Y009043D02*
X022246Y009043D01*
X022246Y008885D02*
X020811Y008885D01*
X020811Y008726D02*
X022246Y008726D01*
X022246Y008568D02*
X020811Y008568D01*
X020811Y008409D02*
X022246Y008409D01*
X022246Y008250D02*
X020811Y008250D01*
X020811Y008092D02*
X022246Y008092D01*
X022246Y007933D02*
X020811Y007933D01*
X020811Y007775D02*
X022246Y007775D01*
X022246Y007616D02*
X020811Y007616D01*
X020964Y007458D02*
X022246Y007458D01*
X022246Y007299D02*
X021123Y007299D01*
X021281Y007141D02*
X022246Y007141D01*
X022246Y006982D02*
X021356Y006982D01*
X021356Y006824D02*
X022246Y006824D01*
X022246Y006665D02*
X021356Y006665D01*
X021356Y006506D02*
X022246Y006506D01*
X022246Y006348D02*
X021355Y006348D01*
X021197Y006189D02*
X022246Y006189D01*
X022246Y006031D02*
X021038Y006031D01*
X020880Y005872D02*
X022246Y005872D01*
X022246Y005714D02*
X020811Y005714D01*
X020811Y005555D02*
X022246Y005555D01*
X022246Y005397D02*
X020811Y005397D01*
X020811Y005238D02*
X022246Y005238D01*
X022246Y005080D02*
X020811Y005080D01*
X020811Y004921D02*
X022246Y004921D01*
X022246Y004763D02*
X020811Y004763D01*
X020811Y004604D02*
X022246Y004604D01*
X022246Y004445D02*
X020977Y004445D01*
X021135Y004287D02*
X022246Y004287D01*
X022246Y004128D02*
X021294Y004128D01*
X021356Y003970D02*
X022246Y003970D01*
X022246Y003811D02*
X021356Y003811D01*
X021356Y003653D02*
X022246Y003653D01*
X022246Y003494D02*
X021356Y003494D01*
X021343Y003336D02*
X022246Y003336D01*
X022246Y003177D02*
X021184Y003177D01*
X021026Y003019D02*
X022246Y003019D01*
X022243Y002860D02*
X020867Y002860D01*
X020116Y002860D02*
X006811Y002860D01*
X006811Y002701D02*
X022230Y002701D01*
X022194Y002543D02*
X006811Y002543D01*
X006811Y002384D02*
X022157Y002384D01*
X022093Y002226D02*
X006811Y002226D01*
X006811Y002067D02*
X022017Y002067D01*
X021920Y001909D02*
X010247Y001909D01*
X010406Y001750D02*
X021794Y001750D01*
X021635Y001592D02*
X010491Y001592D01*
X010491Y001433D02*
X021436Y001433D01*
X021125Y001275D02*
X010491Y001275D01*
X009991Y001457D02*
X008704Y001457D01*
X006991Y001457D01*
X006821Y001909D02*
X008448Y001909D01*
X008960Y001909D02*
X009736Y001909D01*
X006991Y001457D02*
X006947Y001459D01*
X006904Y001465D01*
X006862Y001474D01*
X006820Y001487D01*
X006780Y001504D01*
X006741Y001524D01*
X006704Y001547D01*
X006670Y001574D01*
X006637Y001603D01*
X006608Y001636D01*
X006581Y001670D01*
X006558Y001707D01*
X006538Y001746D01*
X006521Y001786D01*
X006508Y001828D01*
X006499Y001870D01*
X006493Y001913D01*
X006491Y001957D01*
X006491Y003082D01*
X006803Y003177D02*
X019799Y003177D01*
X019957Y003019D02*
X006811Y003019D01*
X006758Y003336D02*
X019640Y003336D01*
X019626Y003494D02*
X006687Y003494D01*
X006551Y003653D02*
X019626Y003653D01*
X019626Y003811D02*
X006330Y003811D01*
X005866Y003582D02*
X004366Y003582D01*
X004226Y002723D02*
X004174Y002725D01*
X004122Y002730D01*
X004070Y002740D01*
X004019Y002753D01*
X003969Y002769D01*
X003921Y002789D01*
X003874Y002813D01*
X003829Y002840D01*
X003786Y002869D01*
X003745Y002902D01*
X003707Y002938D01*
X003671Y002976D01*
X003638Y003017D01*
X003609Y003060D01*
X003582Y003105D01*
X003558Y003152D01*
X003538Y003200D01*
X003522Y003250D01*
X003509Y003301D01*
X003499Y003353D01*
X003494Y003405D01*
X003492Y003457D01*
X003491Y003457D02*
X003491Y007707D01*
X003491Y008207D01*
X003493Y008237D01*
X003498Y008267D01*
X003507Y008296D01*
X003520Y008323D01*
X003535Y008349D01*
X003554Y008373D01*
X003575Y008394D01*
X003599Y008413D01*
X003625Y008428D01*
X003652Y008441D01*
X003681Y008450D01*
X003711Y008455D01*
X003741Y008457D01*
X005241Y008457D01*
X005271Y008455D01*
X005301Y008450D01*
X005330Y008441D01*
X005357Y008428D01*
X005383Y008413D01*
X005407Y008394D01*
X005428Y008373D01*
X005447Y008349D01*
X005462Y008323D01*
X005475Y008296D01*
X005484Y008267D01*
X005489Y008237D01*
X005491Y008207D01*
X005491Y007957D01*
X005857Y007616D02*
X009125Y007616D01*
X009104Y007637D02*
X009284Y007457D01*
X009699Y007457D01*
X009991Y007750D01*
X009991Y008165D01*
X009699Y008457D01*
X009284Y008457D01*
X009104Y008277D01*
X009055Y008277D01*
X008991Y008277D01*
X008837Y008288D01*
X008540Y008367D01*
X008273Y008521D01*
X008055Y008739D01*
X007901Y009006D01*
X007869Y009128D01*
X007991Y009250D01*
X007991Y009665D01*
X007699Y009957D01*
X007284Y009957D01*
X006991Y009665D01*
X006991Y009250D01*
X007225Y009016D01*
X007295Y008755D01*
X007535Y008340D01*
X007874Y008001D01*
X008289Y007762D01*
X008752Y007638D01*
X008928Y007638D01*
X008928Y007637D01*
X008980Y007637D01*
X008991Y007637D01*
X009055Y007637D01*
X009104Y007637D01*
X009284Y007458D02*
X008573Y007458D01*
X008752Y007638D02*
X008752Y007638D01*
X008991Y007957D02*
X009491Y007957D01*
X009857Y007616D02*
X010171Y007616D01*
X010171Y007458D02*
X009699Y007458D01*
X009765Y007141D02*
X010171Y007141D01*
X010171Y007299D02*
X008809Y007299D01*
X008949Y007141D02*
X009218Y007141D01*
X009491Y006707D02*
X008741Y006707D01*
X008741Y005495D01*
X008740Y005485D01*
X008736Y005476D01*
X008730Y005469D01*
X008722Y005463D01*
X008714Y005459D01*
X008704Y005458D01*
X009204Y005397D02*
X009491Y005397D01*
X009491Y005555D02*
X009204Y005555D01*
X009155Y005714D02*
X009541Y005714D01*
X009699Y005872D02*
X009061Y005872D01*
X009061Y006031D02*
X010171Y006031D01*
X010171Y006189D02*
X009061Y006189D01*
X009061Y006348D02*
X009144Y006348D01*
X009839Y006348D02*
X010171Y006348D01*
X010171Y006506D02*
X009991Y006506D01*
X009991Y006665D02*
X010171Y006665D01*
X010171Y006824D02*
X009991Y006824D01*
X009924Y006982D02*
X010171Y006982D01*
X010171Y007775D02*
X009991Y007775D01*
X009991Y007933D02*
X010171Y007933D01*
X010171Y008092D02*
X009991Y008092D01*
X009905Y008250D02*
X010171Y008250D01*
X010171Y008409D02*
X009747Y008409D01*
X010171Y008568D02*
X008227Y008568D01*
X008068Y008726D02*
X010171Y008726D01*
X010171Y008885D02*
X007971Y008885D01*
X007891Y009043D02*
X010171Y009043D01*
X010171Y009202D02*
X007943Y009202D01*
X007991Y009360D02*
X008881Y009360D01*
X007491Y009457D02*
X007493Y009381D01*
X007499Y009305D01*
X007508Y009230D01*
X007522Y009155D01*
X007539Y009081D01*
X007560Y009008D01*
X007584Y008936D01*
X007613Y008865D01*
X007644Y008796D01*
X007679Y008729D01*
X007718Y008664D01*
X007760Y008600D01*
X007805Y008539D01*
X007853Y008480D01*
X007904Y008424D01*
X007958Y008370D01*
X008014Y008319D01*
X008073Y008271D01*
X008134Y008226D01*
X008198Y008184D01*
X008263Y008145D01*
X008330Y008110D01*
X008399Y008079D01*
X008470Y008050D01*
X008542Y008026D01*
X008615Y008005D01*
X008689Y007988D01*
X008764Y007974D01*
X008839Y007965D01*
X008915Y007959D01*
X008991Y007957D01*
X009236Y008409D02*
X008468Y008409D01*
X007991Y007933D02*
X005991Y007933D01*
X005991Y007775D02*
X008266Y007775D01*
X008289Y007762D02*
X008289Y007762D01*
X007874Y008001D02*
X007874Y008001D01*
X007783Y008092D02*
X005991Y008092D01*
X005905Y008250D02*
X007625Y008250D01*
X007535Y008340D02*
X007535Y008340D01*
X007495Y008409D02*
X005775Y008409D01*
X005687Y008568D02*
X007404Y008568D01*
X007312Y008726D02*
X005479Y008726D01*
X005359Y008885D02*
X007261Y008885D01*
X007295Y008755D02*
X007295Y008755D01*
X007199Y009043D02*
X006699Y009043D01*
X006674Y009017D02*
X006931Y009275D01*
X006931Y009457D01*
X006492Y009457D01*
X006492Y009458D01*
X006931Y009458D01*
X006931Y009640D01*
X006674Y009897D01*
X006492Y009897D01*
X006492Y009458D01*
X006491Y009458D01*
X006491Y009897D01*
X006309Y009897D01*
X006051Y009640D01*
X006051Y009458D01*
X006491Y009458D01*
X006491Y009457D01*
X006492Y009457D01*
X006492Y009017D01*
X006674Y009017D01*
X006491Y009017D02*
X006491Y009457D01*
X006051Y009457D01*
X006051Y009275D01*
X006309Y009017D01*
X006491Y009017D01*
X006491Y009043D02*
X006492Y009043D01*
X006491Y009202D02*
X006492Y009202D01*
X006491Y009360D02*
X006492Y009360D01*
X006491Y009519D02*
X006492Y009519D01*
X006491Y009677D02*
X006492Y009677D01*
X006491Y009836D02*
X006492Y009836D01*
X006735Y009836D02*
X007163Y009836D01*
X007004Y009677D02*
X006894Y009677D01*
X006931Y009519D02*
X006991Y009519D01*
X006991Y009360D02*
X006931Y009360D01*
X006858Y009202D02*
X007040Y009202D01*
X006283Y009043D02*
X005518Y009043D01*
X005656Y009202D02*
X006125Y009202D01*
X006051Y009360D02*
X005656Y009360D01*
X005656Y009519D02*
X006051Y009519D01*
X006089Y009677D02*
X005656Y009677D01*
X005553Y009836D02*
X006248Y009836D01*
X005711Y010470D02*
X008171Y010470D01*
X008171Y010312D02*
X003991Y010312D01*
X003991Y010470D02*
X005272Y010470D01*
X005113Y010629D02*
X003991Y010629D01*
X003869Y010787D02*
X004991Y010787D01*
X004991Y010946D02*
X003710Y010946D01*
X003491Y010457D02*
X003491Y009707D01*
X003493Y009677D01*
X003498Y009647D01*
X003507Y009618D01*
X003520Y009591D01*
X003535Y009565D01*
X003554Y009541D01*
X003575Y009520D01*
X003599Y009501D01*
X003625Y009486D01*
X003652Y009473D01*
X003681Y009464D01*
X003711Y009459D01*
X003741Y009457D01*
X004991Y009457D01*
X004465Y009043D02*
X004268Y009043D01*
X004109Y008885D02*
X004624Y008885D01*
X004429Y009836D02*
X004303Y009836D01*
X004145Y009994D02*
X004588Y009994D01*
X003894Y010153D02*
X008215Y010153D01*
X008171Y010288D02*
X008171Y010288D01*
X008267Y009994D02*
X005395Y009994D01*
X005870Y010629D02*
X008171Y010629D01*
X008370Y009836D02*
X007820Y009836D01*
X007979Y009677D02*
X008495Y009677D01*
X008713Y009519D02*
X007991Y009519D01*
X009503Y010153D02*
X010171Y010153D01*
X010171Y009994D02*
X009661Y009994D01*
X009741Y009836D02*
X010171Y009836D01*
X010171Y009677D02*
X009741Y009677D01*
X009741Y009519D02*
X010171Y009519D01*
X010171Y009360D02*
X009601Y009360D01*
X008241Y007207D02*
X004991Y007207D01*
X004600Y006982D02*
X004491Y006982D01*
X004491Y006824D02*
X007051Y006824D01*
X007051Y006665D02*
X004406Y006665D01*
X004311Y006506D02*
X007070Y006506D01*
X007229Y006348D02*
X004311Y006348D01*
X004311Y006189D02*
X008421Y006189D01*
X008421Y006031D02*
X004311Y006031D01*
X004311Y005872D02*
X008412Y005872D01*
X008253Y005714D02*
X004311Y005714D01*
X004311Y005555D02*
X008204Y005555D01*
X008204Y005397D02*
X004311Y005397D01*
X004311Y005238D02*
X005087Y005238D01*
X005113Y005258D02*
X005042Y005204D01*
X004979Y005141D01*
X004925Y005070D01*
X004880Y004993D01*
X004846Y004911D01*
X004823Y004825D01*
X004811Y004736D01*
X004811Y004710D01*
X005473Y004710D01*
X005473Y004673D01*
X005510Y004673D01*
X005510Y004012D01*
X005536Y004012D01*
X005624Y004023D01*
X005710Y004046D01*
X005793Y004081D01*
X005870Y004125D01*
X005941Y004179D01*
X006004Y004242D01*
X006058Y004313D01*
X006103Y004390D01*
X006137Y004473D01*
X006160Y004559D01*
X006171Y004647D01*
X006171Y004673D01*
X005510Y004673D01*
X005510Y004710D01*
X006171Y004710D01*
X006171Y004736D01*
X006160Y004825D01*
X006137Y004911D01*
X006103Y004993D01*
X006058Y005070D01*
X006004Y005141D01*
X005941Y005204D01*
X005870Y005258D01*
X005793Y005303D01*
X005710Y005337D01*
X005624Y005360D01*
X005536Y005372D01*
X005510Y005372D01*
X005510Y004710D01*
X005473Y004710D01*
X005473Y005372D01*
X005447Y005372D01*
X005358Y005360D01*
X005272Y005337D01*
X005190Y005303D01*
X005113Y005258D01*
X004932Y005080D02*
X004311Y005080D01*
X004311Y004921D02*
X004850Y004921D01*
X004815Y004763D02*
X004311Y004763D01*
X004311Y004604D02*
X004817Y004604D01*
X004811Y004647D02*
X004823Y004559D01*
X004846Y004473D01*
X004880Y004390D01*
X004925Y004313D01*
X004979Y004242D01*
X005042Y004179D01*
X005113Y004125D01*
X005190Y004081D01*
X005272Y004046D01*
X005358Y004023D01*
X005447Y004012D01*
X005473Y004012D01*
X005473Y004673D01*
X004811Y004673D01*
X004811Y004647D01*
X004857Y004445D02*
X004311Y004445D01*
X004311Y004287D02*
X004945Y004287D01*
X005109Y004128D02*
X004311Y004128D01*
X004311Y003970D02*
X019626Y003970D01*
X019689Y004128D02*
X005874Y004128D01*
X006038Y004287D02*
X009070Y004287D01*
X008851Y004445D02*
X006125Y004445D01*
X006166Y004604D02*
X008693Y004604D01*
X008577Y004763D02*
X006168Y004763D01*
X006132Y004921D02*
X008490Y004921D01*
X008375Y005080D02*
X006051Y005080D01*
X005896Y005238D02*
X008216Y005238D01*
X009148Y005080D02*
X009662Y005080D01*
X009504Y005238D02*
X009192Y005238D01*
X008704Y005457D02*
X008706Y005397D01*
X008711Y005336D01*
X008720Y005277D01*
X008733Y005218D01*
X008749Y005159D01*
X008769Y005102D01*
X008792Y005047D01*
X008819Y004992D01*
X008848Y004940D01*
X008881Y004889D01*
X008917Y004840D01*
X008955Y004794D01*
X008997Y004750D01*
X009041Y004708D01*
X009087Y004670D01*
X009136Y004634D01*
X009187Y004601D01*
X009239Y004572D01*
X009294Y004545D01*
X009349Y004522D01*
X009406Y004502D01*
X009465Y004486D01*
X009524Y004473D01*
X009583Y004464D01*
X009644Y004459D01*
X009704Y004457D01*
X009991Y005457D02*
X010035Y005459D01*
X010078Y005465D01*
X010120Y005474D01*
X010162Y005487D01*
X010202Y005504D01*
X010241Y005524D01*
X010278Y005547D01*
X010312Y005574D01*
X010345Y005603D01*
X010374Y005636D01*
X010401Y005670D01*
X010424Y005707D01*
X010444Y005746D01*
X010461Y005786D01*
X010474Y005828D01*
X010483Y005870D01*
X010489Y005913D01*
X010491Y005957D01*
X008421Y006348D02*
X007754Y006348D01*
X007913Y006506D02*
X008421Y006506D01*
X008421Y006665D02*
X007931Y006665D01*
X007931Y006824D02*
X008375Y006824D01*
X008741Y006707D02*
X008739Y006751D01*
X008733Y006794D01*
X008724Y006836D01*
X008711Y006878D01*
X008694Y006918D01*
X008674Y006957D01*
X008651Y006994D01*
X008624Y007028D01*
X008595Y007061D01*
X008562Y007090D01*
X008528Y007117D01*
X008491Y007140D01*
X008452Y007160D01*
X008412Y007177D01*
X008370Y007190D01*
X008328Y007199D01*
X008285Y007205D01*
X008241Y007207D01*
X007492Y006665D02*
X007491Y006665D01*
X007491Y006506D02*
X007492Y006506D01*
X007491Y006348D02*
X007492Y006348D01*
X005510Y005238D02*
X005473Y005238D01*
X005473Y005080D02*
X005510Y005080D01*
X005510Y004921D02*
X005473Y004921D01*
X005473Y004763D02*
X005510Y004763D01*
X005510Y004604D02*
X005473Y004604D01*
X005473Y004445D02*
X005510Y004445D01*
X005510Y004287D02*
X005473Y004287D01*
X005473Y004128D02*
X005510Y004128D01*
X004366Y003582D02*
X004329Y003584D01*
X004293Y003589D01*
X004257Y003598D01*
X004222Y003611D01*
X004189Y003626D01*
X004158Y003645D01*
X004128Y003667D01*
X004101Y003692D01*
X004076Y003719D01*
X004054Y003749D01*
X004035Y003780D01*
X004020Y003813D01*
X004007Y003848D01*
X003998Y003884D01*
X003993Y003920D01*
X003991Y003957D01*
X003991Y006957D01*
X004491Y007707D02*
X004493Y007663D01*
X004499Y007620D01*
X004508Y007578D01*
X004521Y007536D01*
X004538Y007496D01*
X004558Y007457D01*
X004581Y007420D01*
X004608Y007386D01*
X004637Y007353D01*
X004670Y007324D01*
X004704Y007297D01*
X004741Y007274D01*
X004780Y007254D01*
X004820Y007237D01*
X004862Y007224D01*
X004904Y007215D01*
X004947Y007209D01*
X004991Y007207D01*
X005491Y010957D02*
X006241Y010957D01*
X005741Y011421D02*
X005735Y011421D01*
X006241Y011457D02*
X006241Y012957D01*
X005921Y013007D02*
X004114Y013007D01*
X004020Y013165D02*
X005988Y013165D01*
X006088Y013324D02*
X003944Y013324D01*
X003887Y013482D02*
X005392Y013482D01*
X005443Y013482D02*
X005539Y013482D01*
X005591Y013482D02*
X006228Y013482D01*
X006424Y013641D02*
X005892Y013641D01*
X006003Y013799D02*
X006720Y013799D01*
X006050Y013958D02*
X007421Y013958D01*
X007421Y014117D02*
X006050Y014117D01*
X006003Y014275D02*
X007421Y014275D01*
X007308Y014434D02*
X005893Y014434D01*
X005539Y014434D02*
X005443Y014434D01*
X005443Y014275D02*
X005539Y014275D01*
X005539Y014117D02*
X005443Y014117D01*
X005443Y013958D02*
X005539Y013958D01*
X005491Y011957D02*
X005396Y011959D01*
X005301Y011966D01*
X005206Y011977D01*
X005112Y011993D01*
X005019Y012013D01*
X004928Y012038D01*
X004837Y012067D01*
X004748Y012100D01*
X004660Y012138D01*
X004575Y012179D01*
X004491Y012225D01*
X004410Y012274D01*
X004331Y012328D01*
X004255Y012385D01*
X004181Y012446D01*
X004111Y012510D01*
X004044Y012577D01*
X003980Y012647D01*
X003919Y012721D01*
X003862Y012797D01*
X003808Y012876D01*
X003759Y012957D01*
X003713Y013041D01*
X003672Y013126D01*
X003634Y013214D01*
X003601Y013303D01*
X003572Y013394D01*
X003547Y013485D01*
X003527Y013578D01*
X003511Y013672D01*
X003500Y013767D01*
X003493Y013862D01*
X003491Y013957D01*
X003820Y013799D02*
X004980Y013799D01*
X005091Y013641D02*
X003851Y013641D01*
X004241Y012848D02*
X005921Y012848D01*
X005921Y012690D02*
X004404Y012690D01*
X004606Y012531D02*
X005921Y012531D01*
X005921Y012373D02*
X005783Y012373D01*
X005199Y012373D02*
X004935Y012373D01*
X005443Y013641D02*
X005539Y013641D01*
X005539Y013799D02*
X005443Y013799D01*
X006671Y013007D02*
X007485Y013007D01*
X007326Y013165D02*
X006877Y013165D01*
X006561Y012848D02*
X008421Y012848D01*
X008421Y012690D02*
X006561Y012690D01*
X006561Y012531D02*
X008421Y012531D01*
X008421Y013007D02*
X007998Y013007D01*
X008156Y013165D02*
X008421Y013165D01*
X008421Y013324D02*
X008241Y013324D01*
X008241Y013482D02*
X008421Y013482D01*
X008421Y013641D02*
X008241Y013641D01*
X008106Y013799D02*
X008421Y013799D01*
X007741Y013457D02*
X007741Y014707D01*
X007741Y013457D02*
X007682Y013484D01*
X007622Y013508D01*
X007560Y013529D01*
X007497Y013545D01*
X007433Y013558D01*
X007369Y013568D01*
X007304Y013573D01*
X007239Y013575D01*
X007174Y013573D01*
X007109Y013567D01*
X007045Y013558D01*
X006981Y013544D01*
X006918Y013527D01*
X006857Y013507D01*
X006796Y013483D01*
X006737Y013455D01*
X006680Y013424D01*
X006625Y013390D01*
X006572Y013353D01*
X006521Y013312D01*
X006472Y013269D01*
X006426Y013223D01*
X006383Y013174D01*
X006343Y013123D01*
X006306Y013070D01*
X006272Y013014D01*
X006241Y012957D01*
X009230Y017129D02*
X011253Y017129D01*
X011340Y017287D02*
X009143Y017287D01*
X008913Y017446D02*
X011569Y017446D01*
X018241Y013707D02*
X018348Y013704D01*
X018455Y013697D01*
X018561Y013684D01*
X018667Y013666D01*
X018771Y013644D01*
X018875Y013616D01*
X018977Y013583D01*
X019077Y013546D01*
X019176Y013504D01*
X019272Y013457D01*
X019366Y013406D01*
X019457Y013350D01*
X019546Y013290D01*
X019632Y013226D01*
X019714Y013157D01*
X019794Y013085D01*
X019869Y013010D01*
X019941Y012930D01*
X020010Y012848D01*
X020074Y012762D01*
X020134Y012673D01*
X020190Y012582D01*
X020241Y012488D01*
X020288Y012392D01*
X020330Y012293D01*
X020367Y012193D01*
X020400Y012091D01*
X020428Y011987D01*
X020450Y011883D01*
X020468Y011777D01*
X020481Y011671D01*
X020488Y011564D01*
X020491Y011457D01*
X020491Y006707D01*
X020491Y003707D01*
X020171Y010946D02*
X018658Y010946D01*
X019247Y011104D02*
X020171Y011104D01*
X020171Y011263D02*
X019605Y011263D01*
X019842Y011421D02*
X020171Y011421D01*
X020165Y011580D02*
X020059Y011580D01*
X006171Y002384D02*
X006152Y002384D01*
X006171Y002226D02*
X006041Y002226D01*
X005491Y002723D02*
X004226Y002723D01*
X005866Y003583D02*
X005913Y003586D01*
X005960Y003585D01*
X006006Y003581D01*
X006053Y003572D01*
X006098Y003560D01*
X006142Y003544D01*
X006184Y003525D01*
X006225Y003502D01*
X006264Y003476D01*
X006301Y003447D01*
X006335Y003415D01*
X006366Y003380D01*
X006394Y003343D01*
X006419Y003303D01*
X006441Y003262D01*
X006459Y003219D01*
X006474Y003174D01*
X006484Y003129D01*
X006492Y003082D01*
D19*
X015741Y005207D03*
X018241Y013707D03*
M02*
