G75*
G70*
%OFA0B0*%
%FSLAX24Y24*%
%IPPOS*%
%LPD*%
%AMOC8*
5,1,8,0,0,1.08239X$1,22.5*
%
%ADD10C,0.0000*%
%ADD11OC8,0.0520*%
%ADD12C,0.0554*%
%ADD13C,0.1000*%
%ADD14C,0.0768*%
%ADD15OC8,0.0850*%
%ADD16OC8,0.1250*%
%ADD17C,0.0560*%
%ADD18C,0.5100*%
%ADD19C,0.0160*%
D10*
X002741Y002926D02*
X002741Y010406D01*
X002741Y015918D01*
X002743Y016012D01*
X002750Y016105D01*
X002761Y016198D01*
X002777Y016291D01*
X002797Y016382D01*
X002821Y016473D01*
X002849Y016562D01*
X002882Y016650D01*
X002919Y016736D01*
X002960Y016820D01*
X003005Y016903D01*
X003054Y016983D01*
X003106Y017060D01*
X003162Y017135D01*
X003222Y017207D01*
X003285Y017277D01*
X003351Y017343D01*
X003421Y017406D01*
X003493Y017466D01*
X003568Y017522D01*
X003645Y017574D01*
X003725Y017623D01*
X003808Y017668D01*
X003892Y017709D01*
X003978Y017746D01*
X004066Y017779D01*
X004155Y017807D01*
X004246Y017831D01*
X004337Y017851D01*
X004430Y017867D01*
X004523Y017878D01*
X004616Y017885D01*
X004710Y017887D01*
X010419Y017887D01*
X020458Y017887D01*
X020552Y017885D01*
X020645Y017878D01*
X020738Y017867D01*
X020831Y017851D01*
X020922Y017831D01*
X021013Y017807D01*
X021102Y017779D01*
X021190Y017746D01*
X021276Y017709D01*
X021360Y017668D01*
X021442Y017623D01*
X021523Y017574D01*
X021600Y017522D01*
X021675Y017466D01*
X021747Y017406D01*
X021817Y017343D01*
X021883Y017277D01*
X021946Y017207D01*
X022006Y017135D01*
X022062Y017060D01*
X022114Y016983D01*
X022163Y016902D01*
X022208Y016820D01*
X022249Y016736D01*
X022286Y016650D01*
X022319Y016562D01*
X022347Y016473D01*
X022371Y016382D01*
X022391Y016291D01*
X022407Y016198D01*
X022418Y016105D01*
X022425Y016012D01*
X022427Y015918D01*
X022426Y015918D02*
X022426Y011194D01*
X022426Y002926D01*
X022427Y002926D02*
X022425Y002832D01*
X022418Y002739D01*
X022407Y002646D01*
X022391Y002553D01*
X022371Y002462D01*
X022347Y002371D01*
X022319Y002282D01*
X022286Y002194D01*
X022249Y002108D01*
X022208Y002024D01*
X022163Y001942D01*
X022114Y001861D01*
X022062Y001784D01*
X022006Y001709D01*
X021946Y001637D01*
X021883Y001567D01*
X021817Y001501D01*
X021747Y001438D01*
X021675Y001378D01*
X021600Y001322D01*
X021523Y001270D01*
X021443Y001221D01*
X021360Y001176D01*
X021276Y001135D01*
X021190Y001098D01*
X021102Y001065D01*
X021013Y001037D01*
X020922Y001013D01*
X020831Y000993D01*
X020738Y000977D01*
X020645Y000966D01*
X020552Y000959D01*
X020458Y000957D01*
X014946Y000957D01*
X004710Y000957D01*
X004616Y000959D01*
X004523Y000966D01*
X004430Y000977D01*
X004337Y000993D01*
X004246Y001013D01*
X004155Y001037D01*
X004066Y001065D01*
X003978Y001098D01*
X003892Y001135D01*
X003808Y001176D01*
X003725Y001221D01*
X003645Y001270D01*
X003568Y001322D01*
X003493Y001378D01*
X003421Y001438D01*
X003351Y001501D01*
X003285Y001567D01*
X003222Y001637D01*
X003162Y001709D01*
X003106Y001784D01*
X003054Y001861D01*
X003005Y001942D01*
X002960Y002024D01*
X002919Y002108D01*
X002882Y002194D01*
X002849Y002282D01*
X002821Y002371D01*
X002797Y002462D01*
X002777Y002553D01*
X002761Y002646D01*
X002750Y002739D01*
X002743Y002832D01*
X002741Y002926D01*
D11*
X007491Y006707D03*
X008704Y005457D03*
X009991Y005457D03*
X009491Y006707D03*
X009491Y007957D03*
X007491Y009457D03*
X006491Y009457D03*
X005491Y010957D03*
X006241Y011457D03*
X005491Y011957D03*
X003491Y010457D03*
X005491Y007957D03*
X004491Y007707D03*
X003991Y006957D03*
X003491Y007707D03*
X008491Y011457D03*
X009241Y010957D03*
X009241Y011957D03*
X007741Y013457D03*
X007741Y014707D03*
X007741Y015957D03*
X011741Y015957D03*
X011741Y014707D03*
X011741Y013457D03*
X013241Y009707D03*
X009241Y009707D03*
X003491Y014457D03*
X008704Y001457D03*
X009991Y001457D03*
D12*
X008741Y016957D03*
X011741Y016957D03*
D13*
X005491Y004692D03*
X005491Y002723D03*
D14*
X005491Y014037D03*
X004071Y015457D03*
X005491Y016877D03*
D15*
X004991Y009457D03*
X003741Y009457D03*
D16*
X013491Y012207D03*
X013491Y015207D03*
X020491Y006707D03*
X020491Y003707D03*
D17*
X012021Y011207D02*
X011461Y011207D01*
X011461Y012207D02*
X012021Y012207D01*
D18*
X018241Y013707D03*
X015741Y005207D03*
D19*
X003246Y002006D02*
X003078Y002355D01*
X002992Y002732D01*
X002981Y002926D01*
X002981Y002974D01*
X002981Y010359D01*
X002981Y015918D01*
X002992Y016112D01*
X003078Y016489D01*
X003246Y016838D01*
X003488Y017140D01*
X003790Y017382D01*
X004139Y017550D01*
X004516Y017636D01*
X004710Y017647D01*
X010466Y017647D01*
X020458Y017647D01*
X020651Y017636D01*
X021029Y017550D01*
X021378Y017382D01*
X021680Y017140D01*
X021921Y016838D01*
X022089Y016489D01*
X022176Y016112D01*
X022186Y015918D01*
X022186Y015878D01*
X022186Y015870D01*
X022186Y011146D01*
X022186Y002926D01*
X022176Y002732D01*
X022089Y002355D01*
X021921Y002006D01*
X021680Y001704D01*
X021378Y001462D01*
X021029Y001294D01*
X020651Y001208D01*
X020458Y001197D01*
X020426Y001197D01*
X020410Y001197D01*
X014898Y001197D01*
X010438Y001197D01*
X010491Y001250D01*
X010491Y001665D01*
X010199Y001957D01*
X009784Y001957D01*
X009491Y001665D01*
X009491Y001250D01*
X009544Y001197D01*
X009151Y001197D01*
X009204Y001250D01*
X009204Y001665D01*
X008911Y001957D01*
X008497Y001957D01*
X008204Y001665D01*
X008204Y001250D01*
X008257Y001197D01*
X004710Y001197D01*
X004516Y001208D01*
X004139Y001294D01*
X003790Y001462D01*
X003488Y001704D01*
X003246Y002006D01*
X003217Y002067D02*
X005141Y002067D01*
X005072Y002096D02*
X005344Y001983D01*
X005639Y001983D01*
X005911Y002096D01*
X006119Y002304D01*
X006231Y002576D01*
X006231Y002870D01*
X006119Y003142D01*
X005911Y003351D01*
X005639Y003463D01*
X005344Y003463D01*
X005072Y003351D01*
X004864Y003142D01*
X004751Y002870D01*
X004751Y002576D01*
X004864Y002304D01*
X005072Y002096D01*
X004942Y002226D02*
X003141Y002226D01*
X003072Y002384D02*
X004831Y002384D01*
X004765Y002543D02*
X003036Y002543D01*
X002999Y002701D02*
X004751Y002701D01*
X004751Y002860D02*
X002985Y002860D01*
X002981Y003019D02*
X004813Y003019D01*
X004899Y003177D02*
X002981Y003177D01*
X002981Y003336D02*
X005057Y003336D01*
X005272Y004046D02*
X005190Y004081D01*
X005113Y004125D01*
X005042Y004179D01*
X004979Y004242D01*
X004925Y004313D01*
X004880Y004390D01*
X004846Y004473D01*
X004823Y004559D01*
X004811Y004647D01*
X004811Y004673D01*
X005473Y004673D01*
X005510Y004673D01*
X005510Y004012D01*
X005536Y004012D01*
X005624Y004023D01*
X005710Y004046D01*
X005793Y004081D01*
X005870Y004125D01*
X005941Y004179D01*
X006004Y004242D01*
X006058Y004313D01*
X006103Y004390D01*
X006137Y004473D01*
X006160Y004559D01*
X006171Y004647D01*
X006171Y004673D01*
X005510Y004673D01*
X005510Y004710D01*
X006171Y004710D01*
X006171Y004736D01*
X006160Y004825D01*
X006137Y004911D01*
X006103Y004993D01*
X006058Y005070D01*
X006004Y005141D01*
X005941Y005204D01*
X005870Y005258D01*
X005793Y005303D01*
X005710Y005337D01*
X005624Y005360D01*
X005536Y005372D01*
X005510Y005372D01*
X005510Y004710D01*
X005473Y004710D01*
X005473Y004673D01*
X005473Y004012D01*
X005447Y004012D01*
X005358Y004023D01*
X005272Y004046D01*
X005109Y004128D02*
X002981Y004128D01*
X002981Y003970D02*
X019626Y003970D01*
X019626Y004066D02*
X019626Y003349D01*
X020133Y002842D01*
X020850Y002842D01*
X021356Y003349D01*
X021356Y004066D01*
X020850Y004572D01*
X020133Y004572D01*
X019626Y004066D01*
X019689Y004128D02*
X005874Y004128D01*
X006038Y004287D02*
X019848Y004287D01*
X020006Y004445D02*
X006125Y004445D01*
X006166Y004604D02*
X022186Y004604D01*
X022186Y004763D02*
X006168Y004763D01*
X006132Y004921D02*
X022186Y004921D01*
X022186Y005080D02*
X010321Y005080D01*
X010199Y004957D02*
X010491Y005250D01*
X010491Y005665D01*
X010199Y005957D01*
X009784Y005957D01*
X009491Y005665D01*
X009491Y005250D01*
X009784Y004957D01*
X010199Y004957D01*
X010479Y005238D02*
X022186Y005238D01*
X022186Y005397D02*
X010491Y005397D01*
X010491Y005555D02*
X022186Y005555D01*
X022186Y005714D02*
X010442Y005714D01*
X010284Y005872D02*
X020103Y005872D01*
X020133Y005842D02*
X020850Y005842D01*
X021356Y006349D01*
X021356Y007066D01*
X020850Y007572D01*
X020133Y007572D01*
X019626Y007066D01*
X019626Y006349D01*
X020133Y005842D01*
X019945Y006031D02*
X002981Y006031D01*
X002981Y006189D02*
X019786Y006189D01*
X019628Y006348D02*
X009839Y006348D01*
X009699Y006207D02*
X009991Y006500D01*
X009991Y006915D01*
X009699Y007207D01*
X009284Y007207D01*
X008991Y006915D01*
X008991Y006500D01*
X009284Y006207D01*
X009699Y006207D01*
X009699Y005872D02*
X008996Y005872D01*
X008911Y005957D02*
X008497Y005957D01*
X008204Y005665D01*
X008204Y005250D01*
X008497Y004957D01*
X008911Y004957D01*
X009204Y005250D01*
X009204Y005665D01*
X008911Y005957D01*
X009155Y005714D02*
X009541Y005714D01*
X009491Y005555D02*
X009204Y005555D01*
X009204Y005397D02*
X009491Y005397D01*
X009504Y005238D02*
X009192Y005238D01*
X009033Y005080D02*
X009662Y005080D01*
X008412Y005872D02*
X002981Y005872D01*
X002981Y005714D02*
X008253Y005714D01*
X008204Y005555D02*
X002981Y005555D01*
X002981Y005397D02*
X008204Y005397D01*
X008216Y005238D02*
X005896Y005238D01*
X006051Y005080D02*
X008375Y005080D01*
X007674Y006267D02*
X007931Y006525D01*
X007931Y006707D01*
X007492Y006707D01*
X007492Y006708D01*
X007931Y006708D01*
X007931Y006890D01*
X007674Y007147D01*
X007492Y007147D01*
X007492Y006708D01*
X007491Y006708D01*
X007491Y007147D01*
X007309Y007147D01*
X007051Y006890D01*
X007051Y006708D01*
X007491Y006708D01*
X007491Y006707D01*
X007492Y006707D01*
X007492Y006267D01*
X007674Y006267D01*
X007754Y006348D02*
X009144Y006348D01*
X008991Y006506D02*
X007913Y006506D01*
X007931Y006665D02*
X008991Y006665D01*
X008991Y006824D02*
X007931Y006824D01*
X007839Y006982D02*
X009059Y006982D01*
X009218Y007141D02*
X007680Y007141D01*
X007492Y007141D02*
X007491Y007141D01*
X007491Y006982D02*
X007492Y006982D01*
X007491Y006824D02*
X007492Y006824D01*
X007491Y006707D02*
X007051Y006707D01*
X007051Y006525D01*
X007309Y006267D01*
X007491Y006267D01*
X007491Y006707D01*
X007491Y006665D02*
X007492Y006665D01*
X007491Y006506D02*
X007492Y006506D01*
X007491Y006348D02*
X007492Y006348D01*
X007229Y006348D02*
X002981Y006348D01*
X002981Y006506D02*
X003735Y006506D01*
X003784Y006457D02*
X004199Y006457D01*
X004491Y006750D01*
X004491Y007165D01*
X004448Y007207D01*
X004699Y007207D01*
X004991Y007500D01*
X004991Y007915D01*
X004699Y008207D01*
X004284Y008207D01*
X003991Y007915D01*
X003699Y008207D01*
X003284Y008207D01*
X002991Y007915D01*
X002991Y007500D01*
X003284Y007207D01*
X003534Y007207D01*
X003491Y007165D01*
X003491Y006750D01*
X003784Y006457D01*
X003577Y006665D02*
X002981Y006665D01*
X002981Y006824D02*
X003491Y006824D01*
X003491Y006982D02*
X002981Y006982D01*
X002981Y007141D02*
X003491Y007141D01*
X003193Y007299D02*
X002981Y007299D01*
X002981Y007458D02*
X003034Y007458D01*
X002991Y007616D02*
X002981Y007616D01*
X002981Y007775D02*
X002991Y007775D01*
X002981Y007933D02*
X003010Y007933D01*
X002981Y008092D02*
X003169Y008092D01*
X002981Y008250D02*
X005077Y008250D01*
X004991Y008165D02*
X004991Y007750D01*
X005284Y007457D01*
X005699Y007457D01*
X005991Y007750D01*
X005991Y008165D01*
X005699Y008457D01*
X005284Y008457D01*
X004991Y008165D01*
X004991Y008092D02*
X004814Y008092D01*
X004973Y007933D02*
X004991Y007933D01*
X004991Y007775D02*
X004991Y007775D01*
X004991Y007616D02*
X005125Y007616D01*
X005284Y007458D02*
X004949Y007458D01*
X004790Y007299D02*
X019860Y007299D01*
X019701Y007141D02*
X009765Y007141D01*
X009924Y006982D02*
X019626Y006982D01*
X019626Y006824D02*
X009991Y006824D01*
X009991Y006665D02*
X019626Y006665D01*
X019626Y006506D02*
X009991Y006506D01*
X009699Y007457D02*
X009284Y007457D01*
X008991Y007750D01*
X008991Y008165D01*
X009284Y008457D01*
X009699Y008457D01*
X009991Y008165D01*
X009991Y007750D01*
X009699Y007457D01*
X009699Y007458D02*
X020018Y007458D01*
X020964Y007458D02*
X022186Y007458D01*
X022186Y007616D02*
X009857Y007616D01*
X009991Y007775D02*
X022186Y007775D01*
X022186Y007933D02*
X009991Y007933D01*
X009991Y008092D02*
X022186Y008092D01*
X022186Y008250D02*
X009905Y008250D01*
X009747Y008409D02*
X022186Y008409D01*
X022186Y008568D02*
X002981Y008568D01*
X002981Y008726D02*
X022186Y008726D01*
X022186Y008885D02*
X005359Y008885D01*
X005267Y008792D02*
X005656Y009182D01*
X005656Y009733D01*
X005267Y010122D01*
X004716Y010122D01*
X004366Y009773D01*
X004017Y010122D01*
X003863Y010122D01*
X003991Y010250D01*
X003991Y010665D01*
X003699Y010957D01*
X003284Y010957D01*
X002991Y010665D01*
X002991Y010250D01*
X003284Y009957D01*
X003301Y009957D01*
X003076Y009733D01*
X003076Y009182D01*
X003466Y008792D01*
X004017Y008792D01*
X004366Y009142D01*
X004716Y008792D01*
X005267Y008792D01*
X005518Y009043D02*
X006283Y009043D01*
X006309Y009017D02*
X006491Y009017D01*
X006491Y009457D01*
X006492Y009457D01*
X006492Y009458D01*
X006931Y009458D01*
X006931Y009640D01*
X006674Y009897D01*
X006492Y009897D01*
X006492Y009458D01*
X006491Y009458D01*
X006491Y009897D01*
X006309Y009897D01*
X006051Y009640D01*
X006051Y009458D01*
X006491Y009458D01*
X006491Y009457D01*
X006051Y009457D01*
X006051Y009275D01*
X006309Y009017D01*
X006492Y009017D02*
X006674Y009017D01*
X006931Y009275D01*
X006931Y009457D01*
X006492Y009457D01*
X006492Y009017D01*
X006491Y009043D02*
X006492Y009043D01*
X006491Y009202D02*
X006492Y009202D01*
X006491Y009360D02*
X006492Y009360D01*
X006491Y009519D02*
X006492Y009519D01*
X006491Y009677D02*
X006492Y009677D01*
X006491Y009836D02*
X006492Y009836D01*
X006735Y009836D02*
X007163Y009836D01*
X007284Y009957D02*
X006991Y009665D01*
X006991Y009250D01*
X007284Y008957D01*
X007699Y008957D01*
X007991Y009250D01*
X007991Y009665D01*
X007699Y009957D01*
X007284Y009957D01*
X007004Y009677D02*
X006894Y009677D01*
X006931Y009519D02*
X006991Y009519D01*
X006991Y009360D02*
X006931Y009360D01*
X006858Y009202D02*
X007040Y009202D01*
X007199Y009043D02*
X006699Y009043D01*
X006125Y009202D02*
X005656Y009202D01*
X005656Y009360D02*
X006051Y009360D01*
X006051Y009519D02*
X005656Y009519D01*
X005656Y009677D02*
X006089Y009677D01*
X006248Y009836D02*
X005553Y009836D01*
X005395Y009994D02*
X008821Y009994D01*
X008741Y009915D02*
X008741Y009500D01*
X009034Y009207D01*
X009449Y009207D01*
X009741Y009500D01*
X009741Y009915D01*
X009449Y010207D01*
X009034Y010207D01*
X008741Y009915D01*
X008741Y009836D02*
X007820Y009836D01*
X007979Y009677D02*
X008741Y009677D01*
X008741Y009519D02*
X007991Y009519D01*
X007991Y009360D02*
X008881Y009360D01*
X009601Y009360D02*
X012966Y009360D01*
X013059Y009267D02*
X013241Y009267D01*
X013241Y009707D01*
X013242Y009707D01*
X013242Y009708D01*
X013681Y009708D01*
X013681Y009890D01*
X013424Y010147D01*
X013242Y010147D01*
X013242Y009708D01*
X013241Y009708D01*
X013241Y010147D01*
X013059Y010147D01*
X012801Y009890D01*
X012801Y009708D01*
X013241Y009708D01*
X013241Y009707D01*
X012801Y009707D01*
X012801Y009525D01*
X013059Y009267D01*
X013242Y009267D02*
X013424Y009267D01*
X013681Y009525D01*
X013681Y009707D01*
X013242Y009707D01*
X013242Y009267D01*
X013241Y009360D02*
X013242Y009360D01*
X013241Y009519D02*
X013242Y009519D01*
X013241Y009677D02*
X013242Y009677D01*
X013241Y009836D02*
X013242Y009836D01*
X013241Y009994D02*
X013242Y009994D01*
X013577Y009994D02*
X022186Y009994D01*
X022186Y009836D02*
X013681Y009836D01*
X013681Y009677D02*
X022186Y009677D01*
X022186Y009519D02*
X013675Y009519D01*
X013516Y009360D02*
X022186Y009360D01*
X022186Y009202D02*
X007943Y009202D01*
X007784Y009043D02*
X022186Y009043D01*
X022186Y010153D02*
X009503Y010153D01*
X009661Y009994D02*
X012906Y009994D01*
X012801Y009836D02*
X009741Y009836D01*
X009741Y009677D02*
X012801Y009677D01*
X012808Y009519D02*
X009741Y009519D01*
X008980Y010153D02*
X003894Y010153D01*
X003991Y010312D02*
X022186Y010312D01*
X022186Y010470D02*
X005711Y010470D01*
X005699Y010457D02*
X005991Y010750D01*
X005991Y011000D01*
X006034Y010957D01*
X006449Y010957D01*
X006741Y011250D01*
X006741Y011665D01*
X006449Y011957D01*
X006034Y011957D01*
X005991Y011914D01*
X005991Y012165D01*
X005699Y012457D01*
X005284Y012457D01*
X004991Y012165D01*
X004991Y011750D01*
X005284Y011457D01*
X004991Y011165D01*
X004991Y010750D01*
X005284Y010457D01*
X005699Y010457D01*
X005870Y010629D02*
X008948Y010629D01*
X009059Y010517D02*
X008801Y010775D01*
X008801Y010957D01*
X009241Y010957D01*
X009242Y010957D01*
X009242Y010958D01*
X009681Y010958D01*
X009681Y011140D01*
X009424Y011397D01*
X009242Y011397D01*
X009242Y010958D01*
X009241Y010958D01*
X009241Y011397D01*
X009059Y011397D01*
X008991Y011330D01*
X008991Y011500D01*
X009034Y011457D01*
X009449Y011457D01*
X009741Y011750D01*
X009741Y012165D01*
X009449Y012457D01*
X009034Y012457D01*
X008741Y012165D01*
X008741Y011914D01*
X008699Y011957D01*
X008284Y011957D01*
X007991Y011665D01*
X007991Y011250D01*
X008284Y010957D01*
X008699Y010957D01*
X008801Y011060D01*
X008801Y010958D01*
X009241Y010958D01*
X009241Y010957D01*
X009241Y010517D01*
X009059Y010517D01*
X009242Y010517D02*
X009424Y010517D01*
X009681Y010775D01*
X009681Y010957D01*
X009242Y010957D01*
X009242Y010517D01*
X009241Y010629D02*
X009242Y010629D01*
X009241Y010787D02*
X009242Y010787D01*
X009241Y010946D02*
X009242Y010946D01*
X009241Y011104D02*
X009242Y011104D01*
X009241Y011263D02*
X009242Y011263D01*
X008991Y011421D02*
X010987Y011421D01*
X011021Y011502D02*
X010941Y011311D01*
X010941Y011104D01*
X011021Y010913D01*
X011167Y010767D01*
X011358Y010687D01*
X012125Y010687D01*
X012316Y010767D01*
X012462Y010913D01*
X012541Y011104D01*
X012541Y011311D01*
X012462Y011502D01*
X012316Y011648D01*
X012173Y011707D01*
X012316Y011767D01*
X012462Y011913D01*
X012541Y012104D01*
X012541Y012311D01*
X012462Y012502D01*
X012316Y012648D01*
X012125Y012727D01*
X011358Y012727D01*
X011167Y012648D01*
X011021Y012502D01*
X010941Y012311D01*
X010941Y012104D01*
X011021Y011913D01*
X011167Y011767D01*
X011310Y011707D01*
X011167Y011648D01*
X011021Y011502D01*
X011098Y011580D02*
X009571Y011580D01*
X009729Y011738D02*
X011235Y011738D01*
X011037Y011897D02*
X009741Y011897D01*
X009741Y012056D02*
X010961Y012056D01*
X010941Y012214D02*
X009692Y012214D01*
X009533Y012373D02*
X010967Y012373D01*
X011050Y012531D02*
X002981Y012531D01*
X002981Y012373D02*
X005199Y012373D01*
X005041Y012214D02*
X002981Y012214D01*
X002981Y012056D02*
X004991Y012056D01*
X004991Y011897D02*
X002981Y011897D01*
X002981Y011738D02*
X005003Y011738D01*
X005162Y011580D02*
X002981Y011580D01*
X002981Y011421D02*
X005248Y011421D01*
X005284Y011457D02*
X005699Y011457D01*
X005741Y011414D01*
X005741Y011500D01*
X005699Y011457D01*
X005284Y011457D01*
X005090Y011263D02*
X002981Y011263D01*
X002981Y011104D02*
X004991Y011104D01*
X004991Y010946D02*
X003710Y010946D01*
X003869Y010787D02*
X004991Y010787D01*
X005113Y010629D02*
X003991Y010629D01*
X003991Y010470D02*
X005272Y010470D01*
X005991Y010787D02*
X008801Y010787D01*
X008801Y010946D02*
X005991Y010946D01*
X005741Y011421D02*
X005735Y011421D01*
X006509Y011897D02*
X008224Y011897D01*
X008065Y011738D02*
X006668Y011738D01*
X006741Y011580D02*
X007991Y011580D01*
X007991Y011421D02*
X006741Y011421D01*
X006741Y011263D02*
X007991Y011263D01*
X008138Y011104D02*
X006595Y011104D01*
X005991Y012056D02*
X008741Y012056D01*
X008791Y012214D02*
X005942Y012214D01*
X005783Y012373D02*
X008949Y012373D01*
X008156Y013165D02*
X011411Y013165D01*
X011301Y013275D02*
X011559Y013017D01*
X011741Y013017D01*
X011741Y013457D01*
X011742Y013457D01*
X011742Y013458D01*
X012181Y013458D01*
X012181Y013640D01*
X011924Y013897D01*
X011742Y013897D01*
X011742Y013458D01*
X011741Y013458D01*
X011741Y013897D01*
X011559Y013897D01*
X011301Y013640D01*
X011301Y013458D01*
X011741Y013458D01*
X011741Y013457D01*
X011301Y013457D01*
X011301Y013275D01*
X011301Y013324D02*
X008241Y013324D01*
X008241Y013250D02*
X007949Y012957D01*
X007534Y012957D01*
X007241Y013250D01*
X007241Y013665D01*
X007534Y013957D01*
X007949Y013957D01*
X008241Y013665D01*
X008241Y013250D01*
X008241Y013482D02*
X011301Y013482D01*
X011303Y013641D02*
X008241Y013641D01*
X008106Y013799D02*
X011461Y013799D01*
X011741Y013799D02*
X011742Y013799D01*
X011741Y013641D02*
X011742Y013641D01*
X011741Y013482D02*
X011742Y013482D01*
X011742Y013457D02*
X012181Y013457D01*
X012181Y013275D01*
X011924Y013017D01*
X011742Y013017D01*
X011742Y013457D01*
X011741Y013324D02*
X011742Y013324D01*
X011741Y013165D02*
X011742Y013165D01*
X012071Y013165D02*
X015505Y013165D01*
X015536Y013007D02*
X013915Y013007D01*
X013850Y013072D02*
X013133Y013072D01*
X012626Y012566D01*
X012626Y011849D01*
X013133Y011342D01*
X013850Y011342D01*
X014356Y011849D01*
X014356Y012566D01*
X013850Y013072D01*
X014074Y012848D02*
X015577Y012848D01*
X015559Y012894D02*
X015769Y012386D01*
X016074Y011929D01*
X016463Y011540D01*
X016920Y011235D01*
X017428Y011025D01*
X017967Y010917D01*
X018516Y010917D01*
X019055Y011025D01*
X019563Y011235D01*
X020020Y011540D01*
X020409Y011929D01*
X020714Y012386D01*
X020924Y012894D01*
X021031Y013433D01*
X021031Y013982D01*
X020924Y014521D01*
X020714Y015029D01*
X020409Y015486D01*
X020020Y015875D01*
X019563Y016180D01*
X019055Y016390D01*
X018516Y016497D01*
X017967Y016497D01*
X017428Y016390D01*
X016920Y016180D01*
X016463Y015875D01*
X016074Y015486D01*
X015769Y015029D01*
X015559Y014521D01*
X015451Y013982D01*
X015451Y013433D01*
X015559Y012894D01*
X015643Y012690D02*
X014232Y012690D01*
X014356Y012531D02*
X015709Y012531D01*
X015778Y012373D02*
X014356Y012373D01*
X014356Y012214D02*
X015884Y012214D01*
X015990Y012056D02*
X014356Y012056D01*
X014356Y011897D02*
X016106Y011897D01*
X016265Y011738D02*
X014246Y011738D01*
X014087Y011580D02*
X016423Y011580D01*
X016641Y011421D02*
X013929Y011421D01*
X013054Y011421D02*
X012496Y011421D01*
X012541Y011263D02*
X016878Y011263D01*
X017235Y011104D02*
X012541Y011104D01*
X012476Y010946D02*
X017825Y010946D01*
X018658Y010946D02*
X022186Y010946D01*
X022186Y011104D02*
X019247Y011104D01*
X019605Y011263D02*
X022186Y011263D01*
X022186Y011421D02*
X019842Y011421D01*
X020059Y011580D02*
X022186Y011580D01*
X022186Y011738D02*
X020218Y011738D01*
X020377Y011897D02*
X022186Y011897D01*
X022186Y012056D02*
X020493Y012056D01*
X020599Y012214D02*
X022186Y012214D01*
X022186Y012373D02*
X020705Y012373D01*
X020774Y012531D02*
X022186Y012531D01*
X022186Y012690D02*
X020840Y012690D01*
X020905Y012848D02*
X022186Y012848D01*
X022186Y013007D02*
X020947Y013007D01*
X020978Y013165D02*
X022186Y013165D01*
X022186Y013324D02*
X021010Y013324D01*
X021031Y013482D02*
X022186Y013482D01*
X022186Y013641D02*
X021031Y013641D01*
X021031Y013799D02*
X022186Y013799D01*
X022186Y013958D02*
X021031Y013958D01*
X021005Y014117D02*
X022186Y014117D01*
X022186Y014275D02*
X020973Y014275D01*
X020942Y014434D02*
X022186Y014434D01*
X022186Y014592D02*
X020895Y014592D01*
X020829Y014751D02*
X022186Y014751D01*
X022186Y014909D02*
X020763Y014909D01*
X020688Y015068D02*
X022186Y015068D01*
X022186Y015226D02*
X020582Y015226D01*
X020476Y015385D02*
X022186Y015385D01*
X022186Y015543D02*
X020351Y015543D01*
X020192Y015702D02*
X022186Y015702D01*
X022186Y015861D02*
X020034Y015861D01*
X019804Y016019D02*
X022181Y016019D01*
X022161Y016178D02*
X019566Y016178D01*
X019186Y016336D02*
X022124Y016336D01*
X022087Y016495D02*
X018530Y016495D01*
X017953Y016495D02*
X011976Y016495D01*
X011949Y016457D02*
X011886Y016457D01*
X012034Y016519D01*
X012180Y016665D01*
X012259Y016855D01*
X012259Y017060D01*
X012180Y017250D01*
X012034Y017396D01*
X011844Y017475D01*
X011639Y017475D01*
X011448Y017396D01*
X011303Y017250D01*
X011224Y017060D01*
X011224Y016855D01*
X011303Y016665D01*
X011448Y016519D01*
X011597Y016457D01*
X011534Y016457D01*
X011241Y016165D01*
X011241Y015750D01*
X011534Y015457D01*
X011949Y015457D01*
X012241Y015750D01*
X012241Y016165D01*
X011949Y016457D01*
X012070Y016336D02*
X017297Y016336D01*
X016916Y016178D02*
X012228Y016178D01*
X012241Y016019D02*
X013080Y016019D01*
X013133Y016072D02*
X012626Y015566D01*
X012626Y014849D01*
X013133Y014342D01*
X013850Y014342D01*
X014356Y014849D01*
X014356Y015566D01*
X013850Y016072D01*
X013133Y016072D01*
X012921Y015861D02*
X012241Y015861D01*
X012193Y015702D02*
X012763Y015702D01*
X012626Y015543D02*
X012034Y015543D01*
X011949Y015207D02*
X011534Y015207D01*
X011241Y014915D01*
X011241Y014500D01*
X011534Y014207D01*
X011949Y014207D01*
X012241Y014500D01*
X012241Y014915D01*
X011949Y015207D01*
X012088Y015068D02*
X012626Y015068D01*
X012626Y015226D02*
X004651Y015226D01*
X004695Y015333D02*
X004600Y015104D01*
X004425Y014929D01*
X004196Y014834D01*
X003947Y014834D01*
X003734Y014922D01*
X003991Y014665D01*
X003991Y014250D01*
X003699Y013957D01*
X003284Y013957D01*
X002991Y014250D01*
X002991Y014665D01*
X003284Y014957D01*
X003689Y014957D01*
X003543Y015104D01*
X003448Y015333D01*
X003448Y015582D01*
X003543Y015811D01*
X003718Y015986D01*
X003947Y016081D01*
X004196Y016081D01*
X004425Y015986D01*
X004600Y015811D01*
X004695Y015582D01*
X004695Y015333D01*
X004695Y015385D02*
X012626Y015385D01*
X012626Y014909D02*
X012241Y014909D01*
X012241Y014751D02*
X012725Y014751D01*
X012883Y014592D02*
X012241Y014592D01*
X012175Y014434D02*
X013042Y014434D01*
X013941Y014434D02*
X015541Y014434D01*
X015510Y014275D02*
X012016Y014275D01*
X012022Y013799D02*
X015451Y013799D01*
X015451Y013641D02*
X012180Y013641D01*
X012181Y013482D02*
X015451Y013482D01*
X015473Y013324D02*
X012181Y013324D01*
X012909Y012848D02*
X002981Y012848D01*
X002981Y012690D02*
X011267Y012690D01*
X012216Y012690D02*
X012750Y012690D01*
X012626Y012531D02*
X012433Y012531D01*
X012516Y012373D02*
X012626Y012373D01*
X012626Y012214D02*
X012541Y012214D01*
X012521Y012056D02*
X012626Y012056D01*
X012626Y011897D02*
X012446Y011897D01*
X012248Y011738D02*
X012737Y011738D01*
X012896Y011580D02*
X012384Y011580D01*
X012336Y010787D02*
X022186Y010787D01*
X022186Y010629D02*
X009535Y010629D01*
X009681Y010787D02*
X011146Y010787D01*
X011007Y010946D02*
X009681Y010946D01*
X009681Y011104D02*
X010941Y011104D01*
X010941Y011263D02*
X009558Y011263D01*
X007998Y013007D02*
X013067Y013007D01*
X011467Y014275D02*
X008016Y014275D01*
X007949Y014207D02*
X008241Y014500D01*
X008241Y014915D01*
X007949Y015207D01*
X007534Y015207D01*
X007241Y014915D01*
X007241Y014500D01*
X007534Y014207D01*
X007949Y014207D01*
X008175Y014434D02*
X011308Y014434D01*
X011241Y014592D02*
X008241Y014592D01*
X008241Y014751D02*
X011241Y014751D01*
X011241Y014909D02*
X008241Y014909D01*
X008088Y015068D02*
X011395Y015068D01*
X011448Y015543D02*
X008034Y015543D01*
X007949Y015457D02*
X008241Y015750D01*
X008241Y016165D01*
X007949Y016457D01*
X007534Y016457D01*
X007241Y016165D01*
X007241Y015750D01*
X007534Y015457D01*
X007949Y015457D01*
X008193Y015702D02*
X011290Y015702D01*
X011241Y015861D02*
X008241Y015861D01*
X008241Y016019D02*
X011241Y016019D01*
X011254Y016178D02*
X008228Y016178D01*
X008070Y016336D02*
X011413Y016336D01*
X011507Y016495D02*
X008976Y016495D01*
X009034Y016519D02*
X008844Y016440D01*
X008639Y016440D01*
X008448Y016519D01*
X008303Y016665D01*
X008224Y016855D01*
X008224Y017060D01*
X008303Y017250D01*
X008448Y017396D01*
X008639Y017475D01*
X008844Y017475D01*
X009034Y017396D01*
X009180Y017250D01*
X009259Y017060D01*
X009259Y016855D01*
X009180Y016665D01*
X009034Y016519D01*
X009169Y016653D02*
X011314Y016653D01*
X011242Y016812D02*
X009241Y016812D01*
X009259Y016970D02*
X011224Y016970D01*
X011253Y017129D02*
X009230Y017129D01*
X009143Y017287D02*
X011340Y017287D01*
X011569Y017446D02*
X008913Y017446D01*
X008569Y017446D02*
X005749Y017446D01*
X005845Y017406D02*
X005616Y017501D01*
X005367Y017501D01*
X005138Y017406D01*
X004963Y017231D01*
X004868Y017002D01*
X004868Y016753D01*
X004963Y016524D01*
X005138Y016349D01*
X005367Y016254D01*
X005616Y016254D01*
X005845Y016349D01*
X006020Y016524D01*
X006115Y016753D01*
X006115Y017002D01*
X006020Y017231D01*
X005845Y017406D01*
X005964Y017287D02*
X008340Y017287D01*
X008253Y017129D02*
X006063Y017129D01*
X006115Y016970D02*
X008224Y016970D01*
X008242Y016812D02*
X006115Y016812D01*
X006074Y016653D02*
X008314Y016653D01*
X008507Y016495D02*
X005991Y016495D01*
X005815Y016336D02*
X007413Y016336D01*
X007254Y016178D02*
X003007Y016178D01*
X002987Y016019D02*
X003797Y016019D01*
X003592Y015861D02*
X002981Y015861D01*
X002981Y015702D02*
X003497Y015702D01*
X003448Y015543D02*
X002981Y015543D01*
X002981Y015385D02*
X003448Y015385D01*
X003492Y015226D02*
X002981Y015226D01*
X002981Y015068D02*
X003579Y015068D01*
X003747Y014909D02*
X003765Y014909D01*
X003905Y014751D02*
X007241Y014751D01*
X007241Y014909D02*
X004378Y014909D01*
X004564Y015068D02*
X007395Y015068D01*
X007448Y015543D02*
X004695Y015543D01*
X004645Y015702D02*
X007290Y015702D01*
X007241Y015861D02*
X004551Y015861D01*
X004346Y016019D02*
X007241Y016019D01*
X007241Y014592D02*
X005593Y014592D01*
X005623Y014587D02*
X005539Y014601D01*
X005539Y014086D01*
X005443Y014086D01*
X005443Y014601D01*
X005359Y014587D01*
X005275Y014560D01*
X005196Y014520D01*
X005124Y014468D01*
X005061Y014405D01*
X005009Y014333D01*
X004969Y014254D01*
X004941Y014170D01*
X004928Y014085D01*
X005443Y014085D01*
X005443Y013989D01*
X005539Y013989D01*
X005539Y013474D01*
X005623Y013488D01*
X005708Y013515D01*
X005787Y013555D01*
X005859Y013607D01*
X005921Y013670D01*
X005974Y013742D01*
X006014Y013821D01*
X006041Y013905D01*
X006055Y013989D01*
X005540Y013989D01*
X005540Y014085D01*
X006055Y014085D01*
X006041Y014170D01*
X006014Y014254D01*
X005974Y014333D01*
X005921Y014405D01*
X005859Y014468D01*
X005787Y014520D01*
X005708Y014560D01*
X005623Y014587D01*
X005539Y014592D02*
X005443Y014592D01*
X005390Y014592D02*
X003991Y014592D01*
X003991Y014434D02*
X005090Y014434D01*
X004980Y014275D02*
X003991Y014275D01*
X003858Y014117D02*
X004933Y014117D01*
X004928Y013989D02*
X004941Y013905D01*
X004969Y013821D01*
X005009Y013742D01*
X005061Y013670D01*
X005124Y013607D01*
X005196Y013555D01*
X005275Y013515D01*
X005359Y013488D01*
X005443Y013474D01*
X005443Y013989D01*
X004928Y013989D01*
X004933Y013958D02*
X003699Y013958D01*
X003284Y013958D02*
X002981Y013958D01*
X002981Y013799D02*
X004980Y013799D01*
X005091Y013641D02*
X002981Y013641D01*
X002981Y013482D02*
X005392Y013482D01*
X005443Y013482D02*
X005539Y013482D01*
X005591Y013482D02*
X007241Y013482D01*
X007241Y013324D02*
X002981Y013324D01*
X002981Y013165D02*
X007326Y013165D01*
X007485Y013007D02*
X002981Y013007D01*
X002981Y014117D02*
X003125Y014117D01*
X002991Y014275D02*
X002981Y014275D01*
X002981Y014434D02*
X002991Y014434D01*
X002981Y014592D02*
X002991Y014592D01*
X002981Y014751D02*
X003078Y014751D01*
X002981Y014909D02*
X003236Y014909D01*
X003043Y016336D02*
X005168Y016336D01*
X004992Y016495D02*
X003081Y016495D01*
X003157Y016653D02*
X004909Y016653D01*
X004868Y016812D02*
X003234Y016812D01*
X003352Y016970D02*
X004868Y016970D01*
X004920Y017129D02*
X003478Y017129D01*
X003672Y017287D02*
X005019Y017287D01*
X005234Y017446D02*
X003924Y017446D01*
X004380Y017605D02*
X020788Y017605D01*
X021244Y017446D02*
X011913Y017446D01*
X012143Y017287D02*
X021496Y017287D01*
X021689Y017129D02*
X012230Y017129D01*
X012259Y016970D02*
X021816Y016970D01*
X021934Y016812D02*
X012241Y016812D01*
X012169Y016653D02*
X022010Y016653D01*
X016679Y016019D02*
X013903Y016019D01*
X014062Y015861D02*
X016449Y015861D01*
X016290Y015702D02*
X014220Y015702D01*
X014356Y015543D02*
X016132Y015543D01*
X016007Y015385D02*
X014356Y015385D01*
X014356Y015226D02*
X015901Y015226D01*
X015795Y015068D02*
X014356Y015068D01*
X014356Y014909D02*
X015719Y014909D01*
X015654Y014751D02*
X014258Y014751D01*
X014099Y014592D02*
X015588Y014592D01*
X015478Y014117D02*
X006050Y014117D01*
X006050Y013958D02*
X015451Y013958D01*
X009236Y008409D02*
X005747Y008409D01*
X005905Y008250D02*
X009077Y008250D01*
X008991Y008092D02*
X005991Y008092D01*
X005991Y007933D02*
X008991Y007933D01*
X008991Y007775D02*
X005991Y007775D01*
X005857Y007616D02*
X009125Y007616D01*
X009284Y007458D02*
X005699Y007458D01*
X005236Y008409D02*
X002981Y008409D01*
X002981Y008885D02*
X003374Y008885D01*
X003215Y009043D02*
X002981Y009043D01*
X002981Y009202D02*
X003076Y009202D01*
X003076Y009360D02*
X002981Y009360D01*
X002981Y009519D02*
X003076Y009519D01*
X003076Y009677D02*
X002981Y009677D01*
X002981Y009836D02*
X003179Y009836D01*
X003247Y009994D02*
X002981Y009994D01*
X002981Y010153D02*
X003089Y010153D01*
X002991Y010312D02*
X002981Y010312D01*
X002981Y010470D02*
X002991Y010470D01*
X002981Y010629D02*
X002991Y010629D01*
X002981Y010787D02*
X003114Y010787D01*
X002981Y010946D02*
X003273Y010946D01*
X004145Y009994D02*
X004588Y009994D01*
X004429Y009836D02*
X004303Y009836D01*
X004268Y009043D02*
X004465Y009043D01*
X004624Y008885D02*
X004109Y008885D01*
X004169Y008092D02*
X003814Y008092D01*
X003973Y007933D02*
X004010Y007933D01*
X003991Y007915D02*
X003991Y007500D01*
X003948Y007457D01*
X004034Y007457D01*
X003991Y007500D01*
X003991Y007915D01*
X003991Y007775D02*
X003991Y007775D01*
X003991Y007616D02*
X003991Y007616D01*
X003949Y007458D02*
X004034Y007458D01*
X004491Y007141D02*
X007302Y007141D01*
X007144Y006982D02*
X004491Y006982D01*
X004491Y006824D02*
X007051Y006824D01*
X007051Y006665D02*
X004406Y006665D01*
X004248Y006506D02*
X007070Y006506D01*
X005473Y005372D02*
X005447Y005372D01*
X005358Y005360D01*
X005272Y005337D01*
X005190Y005303D01*
X005113Y005258D01*
X005042Y005204D01*
X004979Y005141D01*
X004925Y005070D01*
X004880Y004993D01*
X004846Y004911D01*
X004823Y004825D01*
X004811Y004736D01*
X004811Y004710D01*
X005473Y004710D01*
X005473Y005372D01*
X005473Y005238D02*
X005510Y005238D01*
X005510Y005080D02*
X005473Y005080D01*
X005473Y004921D02*
X005510Y004921D01*
X005510Y004763D02*
X005473Y004763D01*
X005473Y004604D02*
X005510Y004604D01*
X005510Y004445D02*
X005473Y004445D01*
X005473Y004287D02*
X005510Y004287D01*
X005510Y004128D02*
X005473Y004128D01*
X004945Y004287D02*
X002981Y004287D01*
X002981Y004445D02*
X004857Y004445D01*
X004817Y004604D02*
X002981Y004604D01*
X002981Y004763D02*
X004815Y004763D01*
X004850Y004921D02*
X002981Y004921D01*
X002981Y005080D02*
X004932Y005080D01*
X005087Y005238D02*
X002981Y005238D01*
X002981Y003811D02*
X019626Y003811D01*
X019626Y003653D02*
X002981Y003653D01*
X002981Y003494D02*
X019626Y003494D01*
X019640Y003336D02*
X005926Y003336D01*
X006084Y003177D02*
X019799Y003177D01*
X019957Y003019D02*
X006170Y003019D01*
X006231Y002860D02*
X020116Y002860D01*
X020867Y002860D02*
X022183Y002860D01*
X022186Y003019D02*
X021026Y003019D01*
X021184Y003177D02*
X022186Y003177D01*
X022186Y003336D02*
X021343Y003336D01*
X021356Y003494D02*
X022186Y003494D01*
X022186Y003653D02*
X021356Y003653D01*
X021356Y003811D02*
X022186Y003811D01*
X022186Y003970D02*
X021356Y003970D01*
X021294Y004128D02*
X022186Y004128D01*
X022186Y004287D02*
X021135Y004287D01*
X020977Y004445D02*
X022186Y004445D01*
X022186Y005872D02*
X020880Y005872D01*
X021038Y006031D02*
X022186Y006031D01*
X022186Y006189D02*
X021197Y006189D01*
X021355Y006348D02*
X022186Y006348D01*
X022186Y006506D02*
X021356Y006506D01*
X021356Y006665D02*
X022186Y006665D01*
X022186Y006824D02*
X021356Y006824D01*
X021356Y006982D02*
X022186Y006982D01*
X022186Y007141D02*
X021281Y007141D01*
X021123Y007299D02*
X022186Y007299D01*
X022169Y002701D02*
X006231Y002701D01*
X006218Y002543D02*
X022132Y002543D01*
X022096Y002384D02*
X006152Y002384D01*
X006041Y002226D02*
X022027Y002226D01*
X021951Y002067D02*
X005842Y002067D01*
X004226Y001275D02*
X008204Y001275D01*
X008204Y001433D02*
X003851Y001433D01*
X003628Y001592D02*
X008204Y001592D01*
X008290Y001750D02*
X003451Y001750D01*
X003324Y001909D02*
X008448Y001909D01*
X008960Y001909D02*
X009736Y001909D01*
X009577Y001750D02*
X009118Y001750D01*
X009204Y001592D02*
X009491Y001592D01*
X009491Y001433D02*
X009204Y001433D01*
X009204Y001275D02*
X009491Y001275D01*
X010247Y001909D02*
X021844Y001909D01*
X021717Y001750D02*
X010406Y001750D01*
X010491Y001592D02*
X021540Y001592D01*
X021317Y001433D02*
X010491Y001433D01*
X010491Y001275D02*
X020942Y001275D01*
X007241Y013641D02*
X005892Y013641D01*
X006003Y013799D02*
X007376Y013799D01*
X007467Y014275D02*
X006003Y014275D01*
X005893Y014434D02*
X007308Y014434D01*
X005539Y014434D02*
X005443Y014434D01*
X005443Y014275D02*
X005539Y014275D01*
X005539Y014117D02*
X005443Y014117D01*
X005443Y013958D02*
X005539Y013958D01*
X005539Y013799D02*
X005443Y013799D01*
X005443Y013641D02*
X005539Y013641D01*
M02*
