G75*
G70*
%OFA0B0*%
%FSLAX24Y24*%
%IPPOS*%
%LPD*%
%AMOC8*
5,1,8,0,0,1.08239X$1,22.5*
%
%ADD10C,0.0000*%
D10*
X002741Y002926D02*
X002741Y010406D01*
X002741Y015918D01*
X002743Y016012D01*
X002750Y016105D01*
X002761Y016198D01*
X002777Y016291D01*
X002797Y016382D01*
X002821Y016473D01*
X002849Y016562D01*
X002882Y016650D01*
X002919Y016736D01*
X002960Y016820D01*
X003005Y016903D01*
X003054Y016983D01*
X003106Y017060D01*
X003162Y017135D01*
X003222Y017207D01*
X003285Y017277D01*
X003351Y017343D01*
X003421Y017406D01*
X003493Y017466D01*
X003568Y017522D01*
X003645Y017574D01*
X003725Y017623D01*
X003808Y017668D01*
X003892Y017709D01*
X003978Y017746D01*
X004066Y017779D01*
X004155Y017807D01*
X004246Y017831D01*
X004337Y017851D01*
X004430Y017867D01*
X004523Y017878D01*
X004616Y017885D01*
X004710Y017887D01*
X010419Y017887D01*
X020458Y017887D01*
X020552Y017885D01*
X020645Y017878D01*
X020738Y017867D01*
X020831Y017851D01*
X020922Y017831D01*
X021013Y017807D01*
X021102Y017779D01*
X021190Y017746D01*
X021276Y017709D01*
X021360Y017668D01*
X021442Y017623D01*
X021523Y017574D01*
X021600Y017522D01*
X021675Y017466D01*
X021747Y017406D01*
X021817Y017343D01*
X021883Y017277D01*
X021946Y017207D01*
X022006Y017135D01*
X022062Y017060D01*
X022114Y016983D01*
X022163Y016902D01*
X022208Y016820D01*
X022249Y016736D01*
X022286Y016650D01*
X022319Y016562D01*
X022347Y016473D01*
X022371Y016382D01*
X022391Y016291D01*
X022407Y016198D01*
X022418Y016105D01*
X022425Y016012D01*
X022427Y015918D01*
X022426Y015918D02*
X022426Y011194D01*
X022426Y002926D01*
X022427Y002926D02*
X022425Y002832D01*
X022418Y002739D01*
X022407Y002646D01*
X022391Y002553D01*
X022371Y002462D01*
X022347Y002371D01*
X022319Y002282D01*
X022286Y002194D01*
X022249Y002108D01*
X022208Y002024D01*
X022163Y001942D01*
X022114Y001861D01*
X022062Y001784D01*
X022006Y001709D01*
X021946Y001637D01*
X021883Y001567D01*
X021817Y001501D01*
X021747Y001438D01*
X021675Y001378D01*
X021600Y001322D01*
X021523Y001270D01*
X021443Y001221D01*
X021360Y001176D01*
X021276Y001135D01*
X021190Y001098D01*
X021102Y001065D01*
X021013Y001037D01*
X020922Y001013D01*
X020831Y000993D01*
X020738Y000977D01*
X020645Y000966D01*
X020552Y000959D01*
X020458Y000957D01*
X014946Y000957D01*
X004710Y000957D01*
X004616Y000959D01*
X004523Y000966D01*
X004430Y000977D01*
X004337Y000993D01*
X004246Y001013D01*
X004155Y001037D01*
X004066Y001065D01*
X003978Y001098D01*
X003892Y001135D01*
X003808Y001176D01*
X003725Y001221D01*
X003645Y001270D01*
X003568Y001322D01*
X003493Y001378D01*
X003421Y001438D01*
X003351Y001501D01*
X003285Y001567D01*
X003222Y001637D01*
X003162Y001709D01*
X003106Y001784D01*
X003054Y001861D01*
X003005Y001942D01*
X002960Y002024D01*
X002919Y002108D01*
X002882Y002194D01*
X002849Y002282D01*
X002821Y002371D01*
X002797Y002462D01*
X002777Y002553D01*
X002761Y002646D01*
X002750Y002739D01*
X002743Y002832D01*
X002741Y002926D01*
M02*
