G75*
G70*
%OFA0B0*%
%FSLAX24Y24*%
%IPPOS*%
%LPD*%
%AMOC8*
5,1,8,0,0,1.08239X$1,22.5*
%
%ADD10C,0.0197*%
%ADD11C,0.0000*%
%ADD12C,0.0040*%
%ADD13C,0.0160*%
%ADD14C,0.0070*%
%ADD15C,0.0060*%
%ADD16R,0.0340X0.0240*%
%ADD17R,0.0240X0.0340*%
%ADD18C,0.0050*%
%ADD19C,0.0080*%
%ADD20C,0.0030*%
%ADD21C,0.0100*%
%ADD22R,0.0240X0.0960*%
%ADD23C,0.0120*%
D10*
X014304Y013707D02*
X014309Y013900D01*
X014323Y014093D01*
X014347Y014285D01*
X014380Y014475D01*
X014422Y014664D01*
X014474Y014850D01*
X014534Y015033D01*
X014604Y015214D01*
X014682Y015390D01*
X014769Y015563D01*
X014864Y015731D01*
X014968Y015894D01*
X015079Y016052D01*
X015198Y016205D01*
X015324Y016351D01*
X015457Y016491D01*
X015597Y016624D01*
X015743Y016750D01*
X015896Y016869D01*
X016054Y016980D01*
X016217Y017084D01*
X016385Y017179D01*
X016558Y017266D01*
X016734Y017344D01*
X016915Y017414D01*
X017098Y017474D01*
X017284Y017526D01*
X017473Y017568D01*
X017663Y017601D01*
X017855Y017625D01*
X018048Y017639D01*
X018241Y017644D01*
X018434Y017639D01*
X018627Y017625D01*
X018819Y017601D01*
X019009Y017568D01*
X019198Y017526D01*
X019384Y017474D01*
X019567Y017414D01*
X019748Y017344D01*
X019924Y017266D01*
X020097Y017179D01*
X020265Y017084D01*
X020428Y016980D01*
X020586Y016869D01*
X020739Y016750D01*
X020885Y016624D01*
X021025Y016491D01*
X021158Y016351D01*
X021284Y016205D01*
X021403Y016052D01*
X021514Y015894D01*
X021618Y015731D01*
X021713Y015563D01*
X021800Y015390D01*
X021878Y015214D01*
X021948Y015033D01*
X022008Y014850D01*
X022060Y014664D01*
X022102Y014475D01*
X022135Y014285D01*
X022159Y014093D01*
X022173Y013900D01*
X022178Y013707D01*
X022173Y013514D01*
X022159Y013321D01*
X022135Y013129D01*
X022102Y012939D01*
X022060Y012750D01*
X022008Y012564D01*
X021948Y012381D01*
X021878Y012200D01*
X021800Y012024D01*
X021713Y011851D01*
X021618Y011683D01*
X021514Y011520D01*
X021403Y011362D01*
X021284Y011209D01*
X021158Y011063D01*
X021025Y010923D01*
X020885Y010790D01*
X020739Y010664D01*
X020586Y010545D01*
X020428Y010434D01*
X020265Y010330D01*
X020097Y010235D01*
X019924Y010148D01*
X019748Y010070D01*
X019567Y010000D01*
X019384Y009940D01*
X019198Y009888D01*
X019009Y009846D01*
X018819Y009813D01*
X018627Y009789D01*
X018434Y009775D01*
X018241Y009770D01*
X018048Y009775D01*
X017855Y009789D01*
X017663Y009813D01*
X017473Y009846D01*
X017284Y009888D01*
X017098Y009940D01*
X016915Y010000D01*
X016734Y010070D01*
X016558Y010148D01*
X016385Y010235D01*
X016217Y010330D01*
X016054Y010434D01*
X015896Y010545D01*
X015743Y010664D01*
X015597Y010790D01*
X015457Y010923D01*
X015324Y011063D01*
X015198Y011209D01*
X015079Y011362D01*
X014968Y011520D01*
X014864Y011683D01*
X014769Y011851D01*
X014682Y012024D01*
X014604Y012200D01*
X014534Y012381D01*
X014474Y012564D01*
X014422Y012750D01*
X014380Y012939D01*
X014347Y013129D01*
X014323Y013321D01*
X014309Y013514D01*
X014304Y013707D01*
D11*
X002741Y010406D02*
X002741Y002926D01*
X002743Y002832D01*
X002750Y002739D01*
X002761Y002646D01*
X002777Y002553D01*
X002797Y002462D01*
X002821Y002371D01*
X002849Y002282D01*
X002882Y002194D01*
X002919Y002108D01*
X002960Y002024D01*
X003005Y001942D01*
X003054Y001861D01*
X003106Y001784D01*
X003162Y001709D01*
X003222Y001637D01*
X003285Y001567D01*
X003351Y001501D01*
X003421Y001438D01*
X003493Y001378D01*
X003568Y001322D01*
X003645Y001270D01*
X003725Y001221D01*
X003808Y001176D01*
X003892Y001135D01*
X003978Y001098D01*
X004066Y001065D01*
X004155Y001037D01*
X004246Y001013D01*
X004337Y000993D01*
X004430Y000977D01*
X004523Y000966D01*
X004616Y000959D01*
X004710Y000957D01*
X014946Y000957D01*
X020458Y000957D01*
X020552Y000959D01*
X020645Y000966D01*
X020738Y000977D01*
X020831Y000993D01*
X020922Y001013D01*
X021013Y001037D01*
X021102Y001065D01*
X021190Y001098D01*
X021276Y001135D01*
X021360Y001176D01*
X021443Y001221D01*
X021523Y001270D01*
X021600Y001322D01*
X021675Y001378D01*
X021747Y001438D01*
X021817Y001501D01*
X021883Y001567D01*
X021946Y001637D01*
X022006Y001709D01*
X022062Y001784D01*
X022114Y001861D01*
X022163Y001942D01*
X022208Y002024D01*
X022249Y002108D01*
X022286Y002194D01*
X022319Y002282D01*
X022347Y002371D01*
X022371Y002462D01*
X022391Y002553D01*
X022407Y002646D01*
X022418Y002739D01*
X022425Y002832D01*
X022427Y002926D01*
X022426Y002926D02*
X022426Y011194D01*
X022426Y015918D01*
X022427Y015918D02*
X022425Y016012D01*
X022418Y016105D01*
X022407Y016198D01*
X022391Y016291D01*
X022371Y016382D01*
X022347Y016473D01*
X022319Y016562D01*
X022286Y016650D01*
X022249Y016736D01*
X022208Y016820D01*
X022163Y016902D01*
X022114Y016983D01*
X022062Y017060D01*
X022006Y017135D01*
X021946Y017207D01*
X021883Y017277D01*
X021817Y017343D01*
X021747Y017406D01*
X021675Y017466D01*
X021600Y017522D01*
X021523Y017574D01*
X021442Y017623D01*
X021360Y017668D01*
X021276Y017709D01*
X021190Y017746D01*
X021102Y017779D01*
X021013Y017807D01*
X020922Y017831D01*
X020831Y017851D01*
X020738Y017867D01*
X020645Y017878D01*
X020552Y017885D01*
X020458Y017887D01*
X010419Y017887D01*
X004710Y017887D01*
X004616Y017885D01*
X004523Y017878D01*
X004430Y017867D01*
X004337Y017851D01*
X004246Y017831D01*
X004155Y017807D01*
X004066Y017779D01*
X003978Y017746D01*
X003892Y017709D01*
X003808Y017668D01*
X003725Y017623D01*
X003645Y017574D01*
X003568Y017522D01*
X003493Y017466D01*
X003421Y017406D01*
X003351Y017343D01*
X003285Y017277D01*
X003222Y017207D01*
X003162Y017135D01*
X003106Y017060D01*
X003054Y016983D01*
X003005Y016903D01*
X002960Y016820D01*
X002919Y016736D01*
X002882Y016650D01*
X002849Y016562D01*
X002821Y016473D01*
X002797Y016382D01*
X002777Y016291D01*
X002761Y016198D01*
X002750Y016105D01*
X002743Y016012D01*
X002741Y015918D01*
X002741Y010406D01*
D12*
X003311Y011591D02*
X003311Y011771D01*
X003371Y011831D01*
X003491Y011831D01*
X003551Y011771D01*
X003551Y011591D01*
X003551Y011711D02*
X003671Y011831D01*
X003671Y011959D02*
X003611Y011959D01*
X003371Y012199D01*
X003311Y012199D01*
X003311Y011959D01*
X003311Y011591D02*
X003671Y011591D01*
X006270Y012408D02*
X006331Y012348D01*
X006451Y012348D01*
X006511Y012408D01*
X006511Y012648D01*
X006451Y012708D01*
X006331Y012708D01*
X006270Y012648D01*
X006270Y012408D01*
X006391Y012468D02*
X006511Y012348D01*
X006639Y012408D02*
X006699Y012348D01*
X006819Y012348D01*
X006879Y012408D01*
X006879Y012468D01*
X006819Y012528D01*
X006759Y012528D01*
X006819Y012528D02*
X006879Y012588D01*
X006879Y012648D01*
X006819Y012708D01*
X006699Y012708D01*
X006639Y012648D01*
X007788Y012621D02*
X007788Y012380D01*
X007848Y012320D01*
X007968Y012320D01*
X008028Y012380D01*
X008028Y012621D01*
X007968Y012681D01*
X007848Y012681D01*
X007788Y012621D01*
X007908Y012440D02*
X008028Y012320D01*
X008156Y012320D02*
X008396Y012320D01*
X008276Y012320D02*
X008276Y012681D01*
X008156Y012561D01*
X008875Y013277D02*
X008875Y013638D01*
X009055Y013638D01*
X009115Y013578D01*
X009115Y013458D01*
X009055Y013398D01*
X008875Y013398D01*
X008995Y013398D02*
X009115Y013277D01*
X009243Y013277D02*
X009483Y013518D01*
X009483Y013578D01*
X009423Y013638D01*
X009303Y013638D01*
X009243Y013578D01*
X009243Y013277D02*
X009483Y013277D01*
X009483Y014527D02*
X009243Y014527D01*
X009363Y014527D02*
X009363Y014888D01*
X009243Y014768D01*
X009115Y014828D02*
X009115Y014708D01*
X009055Y014648D01*
X008875Y014648D01*
X008995Y014648D02*
X009115Y014527D01*
X008875Y014527D02*
X008875Y014888D01*
X009055Y014888D01*
X009115Y014828D01*
X009165Y015777D02*
X009045Y015898D01*
X009105Y015898D02*
X008925Y015898D01*
X008925Y015777D02*
X008925Y016138D01*
X009105Y016138D01*
X009165Y016078D01*
X009165Y015958D01*
X009105Y015898D01*
X009293Y015838D02*
X009353Y015777D01*
X009473Y015777D01*
X009533Y015838D01*
X009533Y015898D01*
X009473Y015958D01*
X009413Y015958D01*
X009473Y015958D02*
X009533Y016018D01*
X009533Y016078D01*
X009473Y016138D01*
X009353Y016138D01*
X009293Y016078D01*
X006849Y016943D02*
X006609Y016943D01*
X006729Y016943D02*
X006729Y017304D01*
X006609Y017183D01*
X006481Y017244D02*
X006421Y017304D01*
X006301Y017304D01*
X006241Y017244D01*
X006241Y017003D01*
X006301Y016943D01*
X006421Y016943D01*
X006481Y017003D01*
X012506Y010988D02*
X012627Y010988D01*
X012567Y010988D02*
X012567Y010688D01*
X012506Y010627D01*
X012446Y010627D01*
X012386Y010688D01*
X012755Y010748D02*
X012935Y010748D01*
X012995Y010808D01*
X012995Y010928D01*
X012935Y010988D01*
X012755Y010988D01*
X012755Y010627D01*
X013123Y010627D02*
X013363Y010627D01*
X013243Y010627D02*
X013243Y010988D01*
X013123Y010868D01*
X010923Y009888D02*
X010923Y009527D01*
X010983Y009708D02*
X010743Y009708D01*
X010923Y009888D01*
X010615Y009828D02*
X010615Y009708D01*
X010555Y009648D01*
X010375Y009648D01*
X010495Y009648D02*
X010615Y009527D01*
X010375Y009527D02*
X010375Y009888D01*
X010555Y009888D01*
X010615Y009828D01*
X008558Y009628D02*
X008558Y009568D01*
X008318Y009327D01*
X008558Y009327D01*
X008190Y009388D02*
X008190Y009628D01*
X008130Y009688D01*
X007950Y009688D01*
X007950Y009327D01*
X008130Y009327D01*
X008190Y009388D01*
X008318Y009628D02*
X008378Y009688D01*
X008498Y009688D01*
X008558Y009628D01*
X007173Y008138D02*
X007233Y008078D01*
X007233Y008018D01*
X007173Y007958D01*
X007053Y007958D01*
X006993Y008018D01*
X006993Y008078D01*
X007053Y008138D01*
X007173Y008138D01*
X007173Y007958D02*
X007233Y007898D01*
X007233Y007838D01*
X007173Y007777D01*
X007053Y007777D01*
X006993Y007838D01*
X006993Y007898D01*
X007053Y007958D01*
X006865Y007958D02*
X006865Y008078D01*
X006805Y008138D01*
X006625Y008138D01*
X006625Y007777D01*
X006625Y007898D02*
X006805Y007898D01*
X006865Y007958D01*
X006745Y007898D02*
X006865Y007777D01*
X005438Y006819D02*
X005378Y006879D01*
X005258Y006879D01*
X005198Y006819D01*
X005070Y006819D02*
X005070Y006579D01*
X005010Y006519D01*
X004890Y006519D01*
X004830Y006579D01*
X004830Y006819D01*
X004890Y006879D01*
X005010Y006879D01*
X005070Y006819D01*
X004950Y006639D02*
X005070Y006519D01*
X005198Y006519D02*
X005438Y006759D01*
X005438Y006819D01*
X005438Y006519D02*
X005198Y006519D01*
X005142Y003788D02*
X005021Y003788D01*
X004961Y003728D01*
X004961Y003668D01*
X005021Y003608D01*
X005142Y003608D01*
X005202Y003548D01*
X005202Y003488D01*
X005142Y003427D01*
X005021Y003427D01*
X004961Y003488D01*
X005202Y003728D02*
X005142Y003788D01*
X005330Y003788D02*
X005510Y003788D01*
X005570Y003728D01*
X005570Y003608D01*
X005510Y003548D01*
X005330Y003548D01*
X005330Y003427D02*
X005330Y003788D01*
X005698Y003668D02*
X005818Y003788D01*
X005818Y003427D01*
X005698Y003427D02*
X005938Y003427D01*
X009811Y003199D02*
X009811Y002959D01*
X009991Y002959D01*
X009931Y003079D01*
X009931Y003139D01*
X009991Y003199D01*
X010111Y003199D01*
X010171Y003139D01*
X010171Y003019D01*
X010111Y002959D01*
X010171Y002831D02*
X010051Y002711D01*
X010051Y002771D02*
X010051Y002591D01*
X010171Y002591D02*
X009811Y002591D01*
X009811Y002771D01*
X009871Y002831D01*
X009991Y002831D01*
X010051Y002771D01*
X010800Y001443D02*
X010980Y001443D01*
X011108Y001443D02*
X011168Y001443D01*
X011228Y001383D01*
X011288Y001443D01*
X011348Y001383D01*
X011348Y001202D01*
X011228Y001202D02*
X011228Y001383D01*
X011108Y001443D02*
X011108Y001202D01*
X010980Y001263D02*
X010920Y001323D01*
X010800Y001323D01*
X010740Y001383D01*
X010800Y001443D01*
X010740Y001202D02*
X010920Y001202D01*
X010980Y001263D01*
X011477Y001263D02*
X011537Y001323D01*
X011717Y001323D01*
X011717Y001383D02*
X011717Y001202D01*
X011537Y001202D01*
X011477Y001263D01*
X011537Y001443D02*
X011657Y001443D01*
X011717Y001383D01*
X011845Y001563D02*
X011905Y001563D01*
X011905Y001202D01*
X011845Y001202D02*
X011965Y001202D01*
X012090Y001202D02*
X012210Y001202D01*
X012150Y001202D02*
X012150Y001563D01*
X012090Y001563D01*
X012336Y001443D02*
X012336Y001202D01*
X012336Y001323D02*
X012456Y001443D01*
X012516Y001443D01*
X012643Y001383D02*
X012643Y001263D01*
X012703Y001202D01*
X012823Y001202D01*
X012883Y001263D01*
X012883Y001383D01*
X012823Y001443D01*
X012703Y001443D01*
X012643Y001383D01*
X013011Y001383D02*
X013011Y001263D01*
X013071Y001202D01*
X013191Y001202D01*
X013251Y001263D01*
X013251Y001383D01*
X013191Y001443D01*
X013071Y001443D01*
X013011Y001383D01*
X013379Y001443D02*
X013379Y001202D01*
X013499Y001202D02*
X013499Y001383D01*
X013560Y001443D01*
X013620Y001383D01*
X013620Y001202D01*
X013748Y001202D02*
X013868Y001202D01*
X013808Y001202D02*
X013808Y001563D01*
X013748Y001563D01*
X013499Y001383D02*
X013439Y001443D01*
X013379Y001443D01*
X013993Y001263D02*
X014053Y001323D01*
X014233Y001323D01*
X014233Y001383D02*
X014233Y001202D01*
X014053Y001202D01*
X013993Y001263D01*
X014053Y001443D02*
X014173Y001443D01*
X014233Y001383D01*
X014362Y001443D02*
X014542Y001443D01*
X014602Y001383D01*
X014602Y001263D01*
X014542Y001202D01*
X014362Y001202D01*
X014362Y001563D01*
X014730Y001383D02*
X014790Y001443D01*
X014970Y001443D01*
X014910Y001323D02*
X014970Y001263D01*
X014910Y001202D01*
X014730Y001202D01*
X014790Y001323D02*
X014730Y001383D01*
X014790Y001323D02*
X014910Y001323D01*
X015098Y001263D02*
X015158Y001263D01*
X015158Y001202D01*
X015098Y001202D01*
X015098Y001263D01*
X015282Y001263D02*
X015282Y001383D01*
X015342Y001443D01*
X015522Y001443D01*
X015651Y001383D02*
X015651Y001263D01*
X015711Y001202D01*
X015831Y001202D01*
X015891Y001263D01*
X015891Y001383D01*
X015831Y001443D01*
X015711Y001443D01*
X015651Y001383D01*
X015522Y001202D02*
X015342Y001202D01*
X015282Y001263D01*
X016019Y001202D02*
X016019Y001443D01*
X016079Y001443D01*
X016139Y001383D01*
X016199Y001443D01*
X016259Y001383D01*
X016259Y001202D01*
X016139Y001202D02*
X016139Y001383D01*
X016387Y001202D02*
X016627Y001563D01*
X016756Y001383D02*
X016756Y001263D01*
X016816Y001202D01*
X016996Y001202D01*
X017124Y001263D02*
X017124Y001443D01*
X016996Y001443D02*
X016816Y001443D01*
X016756Y001383D01*
X017124Y001263D02*
X017184Y001202D01*
X017364Y001202D01*
X017364Y001443D01*
X017492Y001443D02*
X017492Y001202D01*
X017492Y001323D02*
X017612Y001443D01*
X017672Y001443D01*
X017799Y001443D02*
X017859Y001443D01*
X017859Y001202D01*
X017799Y001202D02*
X017919Y001202D01*
X018045Y001263D02*
X018105Y001202D01*
X018225Y001202D01*
X018285Y001263D01*
X018285Y001383D01*
X018225Y001443D01*
X018105Y001443D01*
X018045Y001383D01*
X018045Y001263D01*
X017859Y001563D02*
X017859Y001623D01*
X018413Y001443D02*
X018413Y001263D01*
X018473Y001202D01*
X018653Y001202D01*
X018653Y001443D01*
X018781Y001383D02*
X018841Y001443D01*
X019021Y001443D01*
X018961Y001323D02*
X018841Y001323D01*
X018781Y001383D01*
X018781Y001202D02*
X018961Y001202D01*
X019021Y001263D01*
X018961Y001323D01*
X019149Y001383D02*
X019390Y001383D01*
X019518Y001383D02*
X019518Y001263D01*
X019578Y001202D01*
X019758Y001202D01*
X019758Y001443D02*
X019578Y001443D01*
X019518Y001383D01*
X019519Y001827D02*
X019459Y001827D01*
X019459Y001888D01*
X019519Y001888D01*
X019519Y001827D01*
X019643Y001888D02*
X019883Y002128D01*
X019883Y001888D01*
X019823Y001827D01*
X019703Y001827D01*
X019643Y001888D01*
X019643Y002128D01*
X019703Y002188D01*
X019823Y002188D01*
X019883Y002128D01*
X019331Y001827D02*
X019091Y001827D01*
X019211Y001827D02*
X019211Y002188D01*
X019091Y002068D01*
X018963Y002068D02*
X018842Y001827D01*
X018722Y002068D01*
X010667Y006805D02*
X010427Y006805D01*
X010667Y007045D01*
X010667Y007105D01*
X010607Y007165D01*
X010487Y007165D01*
X010427Y007105D01*
X010299Y007105D02*
X010239Y007165D01*
X010118Y007165D01*
X010058Y007105D01*
X010058Y006865D01*
X010118Y006805D01*
X010239Y006805D01*
X010299Y006865D01*
D13*
X013991Y001707D02*
X013823Y001796D01*
X013659Y001894D01*
X013500Y001999D01*
X013347Y002112D01*
X013199Y002232D01*
X013057Y002359D01*
X012922Y002493D01*
X012793Y002634D01*
X012671Y002780D01*
X012557Y002933D01*
X012450Y003090D01*
X012351Y003253D01*
X012260Y003420D01*
X012177Y003592D01*
X012103Y003767D01*
X012037Y003946D01*
X011980Y004128D01*
X011932Y004312D01*
X011893Y004499D01*
X011863Y004687D01*
X011842Y004876D01*
X011831Y005066D01*
X011828Y005257D01*
X011835Y005447D01*
X011852Y005637D01*
X011877Y005826D01*
X011912Y006013D01*
X011956Y006198D01*
X012008Y006382D01*
X012070Y006562D01*
X012140Y006739D01*
X012219Y006912D01*
X012306Y007082D01*
X012402Y007247D01*
X012505Y007407D01*
X012616Y007562D01*
X012734Y007711D01*
X012859Y007854D01*
X012992Y007991D01*
X013131Y008122D01*
X013275Y008246D01*
X013426Y008362D01*
X013583Y008471D01*
X013744Y008572D01*
X013910Y008665D01*
X014081Y008750D01*
X014255Y008827D01*
X014433Y008895D01*
X014614Y008954D01*
X014798Y009005D01*
X014984Y009046D01*
X015171Y009078D01*
X015361Y009101D01*
X015551Y009115D01*
X015741Y009120D01*
X015931Y009115D01*
X016121Y009101D01*
X016311Y009078D01*
X016498Y009046D01*
X016684Y009005D01*
X016868Y008954D01*
X017049Y008895D01*
X017227Y008827D01*
X017401Y008750D01*
X017572Y008665D01*
X017738Y008572D01*
X017899Y008471D01*
X018056Y008362D01*
X018207Y008246D01*
X018351Y008122D01*
X018490Y007991D01*
X018623Y007854D01*
X018748Y007711D01*
X018866Y007562D01*
X018977Y007407D01*
X019080Y007247D01*
X019176Y007082D01*
X019263Y006912D01*
X019342Y006739D01*
X019412Y006562D01*
X019474Y006382D01*
X019526Y006198D01*
X019570Y006013D01*
X019605Y005826D01*
X019630Y005637D01*
X019647Y005447D01*
X019654Y005257D01*
X019651Y005066D01*
X019640Y004876D01*
X019619Y004687D01*
X019589Y004499D01*
X019550Y004312D01*
X019502Y004128D01*
X019445Y003946D01*
X019379Y003767D01*
X019305Y003592D01*
X019222Y003420D01*
X019131Y003253D01*
X019032Y003090D01*
X018925Y002933D01*
X018811Y002780D01*
X018689Y002634D01*
X018560Y002493D01*
X018425Y002359D01*
X018283Y002232D01*
X018135Y002112D01*
X017982Y001999D01*
X017823Y001894D01*
X017659Y001796D01*
X017491Y001707D01*
D14*
X007778Y010056D02*
X007778Y010309D01*
X007651Y010183D02*
X007905Y010183D01*
D15*
X007465Y009825D02*
X007435Y009860D01*
X007404Y009893D01*
X007369Y009923D01*
X007333Y009950D01*
X007295Y009974D01*
X007255Y009996D01*
X007213Y010014D01*
X007170Y010030D01*
X007126Y010042D01*
X007082Y010050D01*
X007036Y010055D01*
X006991Y010057D01*
X006946Y010055D01*
X006900Y010050D01*
X006856Y010042D01*
X006812Y010030D01*
X006769Y010014D01*
X006727Y009996D01*
X006687Y009974D01*
X006649Y009950D01*
X006613Y009923D01*
X006578Y009893D01*
X006547Y009860D01*
X006517Y009825D01*
X006991Y008857D02*
X007037Y008859D01*
X007083Y008864D01*
X007129Y008873D01*
X007174Y008885D01*
X007217Y008901D01*
X007259Y008920D01*
X007300Y008943D01*
X007339Y008968D01*
X007375Y008996D01*
X007410Y009027D01*
X007442Y009061D01*
X007471Y009097D01*
X006991Y008857D02*
X006944Y008859D01*
X006896Y008865D01*
X006850Y008874D01*
X006804Y008887D01*
X006760Y008903D01*
X006716Y008923D01*
X006675Y008947D01*
X006636Y008973D01*
X006599Y009003D01*
X006564Y009036D01*
X006532Y009071D01*
X006503Y009108D01*
X006491Y008407D02*
X006341Y008407D01*
X006324Y008405D01*
X006307Y008401D01*
X006291Y008394D01*
X006277Y008384D01*
X006264Y008371D01*
X006254Y008357D01*
X006247Y008341D01*
X006243Y008324D01*
X006241Y008307D01*
X006241Y007607D01*
X006243Y007590D01*
X006247Y007573D01*
X006254Y007557D01*
X006264Y007543D01*
X006277Y007530D01*
X006291Y007520D01*
X006307Y007513D01*
X006324Y007509D01*
X006341Y007507D01*
X006491Y007507D01*
X006541Y007557D01*
X008441Y007557D01*
X008491Y007507D01*
X008641Y007507D01*
X008658Y007509D01*
X008675Y007513D01*
X008691Y007520D01*
X008705Y007530D01*
X008718Y007543D01*
X008728Y007557D01*
X008735Y007573D01*
X008739Y007590D01*
X008741Y007607D01*
X008741Y008307D01*
X008739Y008324D01*
X008735Y008341D01*
X008728Y008357D01*
X008718Y008371D01*
X008705Y008384D01*
X008691Y008394D01*
X008675Y008401D01*
X008658Y008405D01*
X008641Y008407D01*
X008491Y008407D01*
X008441Y008357D01*
X006541Y008357D01*
X006491Y008407D01*
X005541Y009257D02*
X005541Y009657D01*
X005191Y010007D01*
X004791Y010007D01*
X004441Y009657D01*
X004441Y009257D01*
X004791Y008907D01*
X005191Y008907D01*
X005541Y009257D01*
X004816Y008357D02*
X003167Y008357D01*
X003104Y007807D02*
X002946Y007807D01*
X003879Y007807D02*
X004104Y007807D01*
X004816Y008357D02*
X004853Y008306D01*
X004888Y008253D01*
X004920Y008197D01*
X004948Y008140D01*
X004972Y008081D01*
X004993Y008021D01*
X005010Y007960D01*
X005024Y007898D01*
X005033Y007835D01*
X005039Y007772D01*
X005041Y007708D01*
X005039Y007644D01*
X005033Y007581D01*
X005024Y007518D01*
X005011Y007456D01*
X004993Y007395D01*
X004973Y007335D01*
X004948Y007276D01*
X004920Y007219D01*
X004889Y007163D01*
X004855Y007110D01*
X004817Y007059D01*
X004776Y007010D01*
X004732Y006964D01*
X004686Y006920D01*
X004637Y006879D01*
X004586Y006842D01*
X004532Y006807D01*
X004477Y006776D01*
X004420Y006748D01*
X004361Y006724D01*
X004301Y006704D01*
X003681Y006704D02*
X003621Y006724D01*
X003562Y006748D01*
X003505Y006776D01*
X003450Y006807D01*
X003396Y006842D01*
X003345Y006879D01*
X003296Y006920D01*
X003250Y006964D01*
X003206Y007010D01*
X003165Y007059D01*
X003127Y007110D01*
X003093Y007163D01*
X003061Y007219D01*
X003034Y007276D01*
X003009Y007335D01*
X002989Y007395D01*
X002971Y007456D01*
X002958Y007518D01*
X002949Y007581D01*
X002943Y007644D01*
X002941Y007708D01*
X002943Y007772D01*
X002949Y007835D01*
X002958Y007898D01*
X002972Y007960D01*
X002989Y008021D01*
X003010Y008081D01*
X003034Y008140D01*
X003062Y008197D01*
X003094Y008253D01*
X003129Y008306D01*
X003166Y008357D01*
X003541Y008907D02*
X003941Y008907D01*
X004291Y009257D01*
X004291Y009657D01*
X003941Y010007D01*
X003541Y010007D01*
X003191Y009657D01*
X003191Y009257D01*
X003541Y008907D01*
X004879Y007807D02*
X005037Y007807D01*
X007041Y007107D02*
X007041Y006307D01*
X007043Y006290D01*
X007047Y006273D01*
X007054Y006257D01*
X007064Y006243D01*
X007077Y006230D01*
X007091Y006220D01*
X007107Y006213D01*
X007124Y006209D01*
X007141Y006207D01*
X009841Y006207D01*
X009858Y006209D01*
X009875Y006213D01*
X009891Y006220D01*
X009905Y006230D01*
X009918Y006243D01*
X009928Y006257D01*
X009935Y006273D01*
X009939Y006290D01*
X009941Y006307D01*
X009941Y007107D01*
X009939Y007124D01*
X009935Y007141D01*
X009928Y007157D01*
X009918Y007171D01*
X009905Y007184D01*
X009891Y007194D01*
X009875Y007201D01*
X009858Y007205D01*
X009841Y007207D01*
X007141Y007207D01*
X007124Y007205D01*
X007107Y007201D01*
X007091Y007194D01*
X007077Y007184D01*
X007064Y007171D01*
X007054Y007157D01*
X007047Y007141D01*
X007043Y007124D01*
X007041Y007107D01*
X007891Y006707D02*
X008361Y006707D01*
X008611Y006707D02*
X009091Y006707D01*
X009054Y004707D02*
X008354Y004707D01*
X008337Y004705D01*
X008320Y004701D01*
X008304Y004694D01*
X008290Y004684D01*
X008277Y004671D01*
X008267Y004657D01*
X008260Y004641D01*
X008256Y004624D01*
X008254Y004607D01*
X008254Y004457D01*
X008304Y004407D01*
X008304Y002507D01*
X008254Y002457D01*
X008254Y002307D01*
X008256Y002290D01*
X008260Y002273D01*
X008267Y002257D01*
X008277Y002243D01*
X008290Y002230D01*
X008304Y002220D01*
X008320Y002213D01*
X008337Y002209D01*
X008354Y002207D01*
X009054Y002207D01*
X009071Y002209D01*
X009088Y002213D01*
X009104Y002220D01*
X009118Y002230D01*
X009131Y002243D01*
X009141Y002257D01*
X009148Y002273D01*
X009152Y002290D01*
X009154Y002307D01*
X009154Y002457D01*
X009104Y002507D01*
X009104Y004407D01*
X009154Y004457D01*
X009154Y004607D01*
X009152Y004624D01*
X009148Y004641D01*
X009141Y004657D01*
X009131Y004671D01*
X009118Y004684D01*
X009104Y004694D01*
X009088Y004701D01*
X009071Y004705D01*
X009054Y004707D01*
X009541Y004607D02*
X009541Y004457D01*
X009591Y004407D01*
X009591Y002507D01*
X009541Y002457D01*
X009541Y002307D01*
X009543Y002290D01*
X009547Y002273D01*
X009554Y002257D01*
X009564Y002243D01*
X009577Y002230D01*
X009591Y002220D01*
X009607Y002213D01*
X009624Y002209D01*
X009641Y002207D01*
X010341Y002207D01*
X010358Y002209D01*
X010375Y002213D01*
X010391Y002220D01*
X010405Y002230D01*
X010418Y002243D01*
X010428Y002257D01*
X010435Y002273D01*
X010439Y002290D01*
X010441Y002307D01*
X010441Y002457D01*
X010391Y002507D01*
X010391Y004407D01*
X010441Y004457D01*
X010441Y004607D01*
X010439Y004624D01*
X010435Y004641D01*
X010428Y004657D01*
X010418Y004671D01*
X010405Y004684D01*
X010391Y004694D01*
X010375Y004701D01*
X010358Y004705D01*
X010341Y004707D01*
X009641Y004707D01*
X009624Y004705D01*
X009607Y004701D01*
X009591Y004694D01*
X009577Y004684D01*
X009564Y004671D01*
X009554Y004657D01*
X009547Y004641D01*
X009543Y004624D01*
X009541Y004607D01*
X003091Y003707D02*
X003094Y003825D01*
X003103Y003942D01*
X003117Y004059D01*
X003137Y004175D01*
X003163Y004290D01*
X003194Y004404D01*
X003231Y004516D01*
X003274Y004625D01*
X003321Y004733D01*
X003374Y004838D01*
X003432Y004941D01*
X003495Y005040D01*
X003563Y005137D01*
X003636Y005230D01*
X003713Y005319D01*
X003794Y005404D01*
X003879Y005485D01*
X003968Y005562D01*
X004061Y005635D01*
X004158Y005703D01*
X004257Y005766D01*
X004360Y005824D01*
X004465Y005877D01*
X004573Y005924D01*
X004682Y005967D01*
X004794Y006004D01*
X004908Y006035D01*
X005023Y006061D01*
X005139Y006081D01*
X005256Y006095D01*
X005373Y006104D01*
X005491Y006107D01*
X005609Y006104D01*
X005726Y006095D01*
X005843Y006081D01*
X005959Y006061D01*
X006074Y006035D01*
X006188Y006004D01*
X006300Y005967D01*
X006409Y005924D01*
X006517Y005877D01*
X006622Y005824D01*
X006725Y005766D01*
X006824Y005703D01*
X006921Y005635D01*
X007014Y005562D01*
X007103Y005485D01*
X007188Y005404D01*
X007269Y005319D01*
X007346Y005230D01*
X007419Y005137D01*
X007487Y005040D01*
X007550Y004941D01*
X007608Y004838D01*
X007661Y004733D01*
X007708Y004625D01*
X007751Y004516D01*
X007788Y004404D01*
X007819Y004290D01*
X007845Y004175D01*
X007865Y004059D01*
X007879Y003942D01*
X007888Y003825D01*
X007891Y003707D01*
X007888Y003589D01*
X007879Y003472D01*
X007865Y003355D01*
X007845Y003239D01*
X007819Y003124D01*
X007788Y003010D01*
X007751Y002898D01*
X007708Y002789D01*
X007661Y002681D01*
X007608Y002576D01*
X007550Y002473D01*
X007487Y002374D01*
X007419Y002277D01*
X007346Y002184D01*
X007269Y002095D01*
X007188Y002010D01*
X007103Y001929D01*
X007014Y001852D01*
X006921Y001779D01*
X006824Y001711D01*
X006725Y001648D01*
X006622Y001590D01*
X006517Y001537D01*
X006409Y001490D01*
X006300Y001447D01*
X006188Y001410D01*
X006074Y001379D01*
X005959Y001353D01*
X005843Y001333D01*
X005726Y001319D01*
X005609Y001310D01*
X005491Y001307D01*
X005373Y001310D01*
X005256Y001319D01*
X005139Y001333D01*
X005023Y001353D01*
X004908Y001379D01*
X004794Y001410D01*
X004682Y001447D01*
X004573Y001490D01*
X004465Y001537D01*
X004360Y001590D01*
X004257Y001648D01*
X004158Y001711D01*
X004061Y001779D01*
X003968Y001852D01*
X003879Y001929D01*
X003794Y002010D01*
X003713Y002095D01*
X003636Y002184D01*
X003563Y002277D01*
X003495Y002374D01*
X003432Y002473D01*
X003374Y002576D01*
X003321Y002681D01*
X003274Y002789D01*
X003231Y002898D01*
X003194Y003010D01*
X003163Y003124D01*
X003137Y003239D01*
X003117Y003355D01*
X003103Y003472D01*
X003094Y003589D01*
X003091Y003707D01*
X009991Y009357D02*
X009991Y010057D01*
X009993Y010074D01*
X009997Y010091D01*
X010004Y010107D01*
X010014Y010121D01*
X010027Y010134D01*
X010041Y010144D01*
X010057Y010151D01*
X010074Y010155D01*
X010091Y010157D01*
X010241Y010157D01*
X010291Y010107D01*
X012191Y010107D01*
X012241Y010157D01*
X012391Y010157D01*
X012408Y010155D01*
X012425Y010151D01*
X012441Y010144D01*
X012455Y010134D01*
X012468Y010121D01*
X012478Y010107D01*
X012485Y010091D01*
X012489Y010074D01*
X012491Y010057D01*
X012491Y009357D01*
X012489Y009340D01*
X012485Y009323D01*
X012478Y009307D01*
X012468Y009293D01*
X012455Y009280D01*
X012441Y009270D01*
X012425Y009263D01*
X012408Y009259D01*
X012391Y009257D01*
X012241Y009257D01*
X012191Y009307D01*
X010291Y009307D01*
X010241Y009257D01*
X010091Y009257D01*
X010074Y009259D01*
X010057Y009263D01*
X010041Y009270D01*
X010027Y009280D01*
X010014Y009293D01*
X010004Y009307D01*
X009997Y009323D01*
X009993Y009340D01*
X009991Y009357D01*
X011341Y010707D02*
X011241Y010807D01*
X011241Y011607D01*
X011341Y011707D01*
X011241Y011807D01*
X011241Y012607D01*
X011341Y012707D01*
X012141Y012707D01*
X012241Y012607D01*
X012241Y011807D01*
X012141Y011707D01*
X012241Y011607D01*
X012241Y010807D01*
X012141Y010707D01*
X011341Y010707D01*
X012891Y011607D02*
X012891Y011807D01*
X012891Y011607D02*
X013091Y011607D01*
X013891Y011607D02*
X014091Y011607D01*
X014091Y011807D01*
X014091Y012607D02*
X014091Y012807D01*
X013891Y012807D01*
X013091Y012807D02*
X012891Y012807D01*
X012891Y012607D01*
X010991Y013107D02*
X010991Y013807D01*
X010989Y013824D01*
X010985Y013841D01*
X010978Y013857D01*
X010968Y013871D01*
X010955Y013884D01*
X010941Y013894D01*
X010925Y013901D01*
X010908Y013905D01*
X010891Y013907D01*
X010741Y013907D01*
X010691Y013857D01*
X008791Y013857D01*
X008741Y013907D01*
X008591Y013907D01*
X008574Y013905D01*
X008557Y013901D01*
X008541Y013894D01*
X008527Y013884D01*
X008514Y013871D01*
X008504Y013857D01*
X008497Y013841D01*
X008493Y013824D01*
X008491Y013807D01*
X008491Y013107D01*
X008493Y013090D01*
X008497Y013073D01*
X008504Y013057D01*
X008514Y013043D01*
X008527Y013030D01*
X008541Y013020D01*
X008557Y013013D01*
X008574Y013009D01*
X008591Y013007D01*
X008741Y013007D01*
X008791Y013057D01*
X010691Y013057D01*
X010741Y013007D01*
X010891Y013007D01*
X010908Y013009D01*
X010925Y013013D01*
X010941Y013020D01*
X010955Y013030D01*
X010968Y013043D01*
X010978Y013057D01*
X010985Y013073D01*
X010989Y013090D01*
X010991Y013107D01*
X010891Y014257D02*
X010741Y014257D01*
X010691Y014307D01*
X008791Y014307D01*
X008741Y014257D01*
X008591Y014257D01*
X008574Y014259D01*
X008557Y014263D01*
X008541Y014270D01*
X008527Y014280D01*
X008514Y014293D01*
X008504Y014307D01*
X008497Y014323D01*
X008493Y014340D01*
X008491Y014357D01*
X008491Y015057D01*
X008493Y015074D01*
X008497Y015091D01*
X008504Y015107D01*
X008514Y015121D01*
X008527Y015134D01*
X008541Y015144D01*
X008557Y015151D01*
X008574Y015155D01*
X008591Y015157D01*
X008741Y015157D01*
X008791Y015107D01*
X010691Y015107D01*
X010741Y015157D01*
X010891Y015157D01*
X010908Y015155D01*
X010925Y015151D01*
X010941Y015144D01*
X010955Y015134D01*
X010968Y015121D01*
X010978Y015107D01*
X010985Y015091D01*
X010989Y015074D01*
X010991Y015057D01*
X010991Y014357D01*
X010989Y014340D01*
X010985Y014323D01*
X010978Y014307D01*
X010968Y014293D01*
X010955Y014280D01*
X010941Y014270D01*
X010925Y014263D01*
X010908Y014259D01*
X010891Y014257D01*
X010891Y015507D02*
X010741Y015507D01*
X010691Y015557D01*
X008791Y015557D01*
X008741Y015507D01*
X008591Y015507D01*
X008574Y015509D01*
X008557Y015513D01*
X008541Y015520D01*
X008527Y015530D01*
X008514Y015543D01*
X008504Y015557D01*
X008497Y015573D01*
X008493Y015590D01*
X008491Y015607D01*
X008491Y016307D01*
X008493Y016324D01*
X008497Y016341D01*
X008504Y016357D01*
X008514Y016371D01*
X008527Y016384D01*
X008541Y016394D01*
X008557Y016401D01*
X008574Y016405D01*
X008591Y016407D01*
X008741Y016407D01*
X008791Y016357D01*
X010691Y016357D01*
X010741Y016407D01*
X010891Y016407D01*
X010908Y016405D01*
X010925Y016401D01*
X010941Y016394D01*
X010955Y016384D01*
X010968Y016371D01*
X010978Y016357D01*
X010985Y016341D01*
X010989Y016324D01*
X010991Y016307D01*
X010991Y015607D01*
X010989Y015590D01*
X010985Y015573D01*
X010978Y015557D01*
X010968Y015543D01*
X010955Y015530D01*
X010941Y015520D01*
X010925Y015513D01*
X010908Y015509D01*
X010891Y015507D01*
X012891Y015607D02*
X012891Y015807D01*
X013091Y015807D01*
X013891Y015807D02*
X014091Y015807D01*
X014091Y015607D01*
X014091Y014807D02*
X014091Y014607D01*
X013891Y014607D01*
X013091Y014607D02*
X012891Y014607D01*
X012891Y014807D01*
X004991Y015457D02*
X004993Y015501D01*
X004999Y015545D01*
X005009Y015588D01*
X005022Y015630D01*
X005039Y015671D01*
X005060Y015710D01*
X005084Y015747D01*
X005111Y015782D01*
X005141Y015814D01*
X005174Y015844D01*
X005210Y015870D01*
X005247Y015894D01*
X005287Y015913D01*
X005328Y015930D01*
X005371Y015942D01*
X005414Y015951D01*
X005458Y015956D01*
X005502Y015957D01*
X005546Y015954D01*
X005590Y015947D01*
X005633Y015936D01*
X005675Y015922D01*
X005715Y015904D01*
X005754Y015882D01*
X005790Y015858D01*
X005824Y015830D01*
X005856Y015799D01*
X005885Y015765D01*
X005911Y015729D01*
X005933Y015691D01*
X005952Y015651D01*
X005967Y015609D01*
X005979Y015567D01*
X005987Y015523D01*
X005991Y015479D01*
X005991Y015435D01*
X005987Y015391D01*
X005979Y015347D01*
X005967Y015305D01*
X005952Y015263D01*
X005933Y015223D01*
X005911Y015185D01*
X005885Y015149D01*
X005856Y015115D01*
X005824Y015084D01*
X005790Y015056D01*
X005754Y015032D01*
X005715Y015010D01*
X005675Y014992D01*
X005633Y014978D01*
X005590Y014967D01*
X005546Y014960D01*
X005502Y014957D01*
X005458Y014958D01*
X005414Y014963D01*
X005371Y014972D01*
X005328Y014984D01*
X005287Y015001D01*
X005247Y015020D01*
X005210Y015044D01*
X005174Y015070D01*
X005141Y015100D01*
X005111Y015132D01*
X005084Y015167D01*
X005060Y015204D01*
X005039Y015243D01*
X005022Y015284D01*
X005009Y015326D01*
X004999Y015369D01*
X004993Y015413D01*
X004991Y015457D01*
X003841Y013707D02*
X003141Y013707D01*
X003124Y013705D01*
X003107Y013701D01*
X003091Y013694D01*
X003077Y013684D01*
X003064Y013671D01*
X003054Y013657D01*
X003047Y013641D01*
X003043Y013624D01*
X003041Y013607D01*
X003041Y013457D01*
X003091Y013407D01*
X003091Y011507D01*
X003041Y011457D01*
X003041Y011307D01*
X003043Y011290D01*
X003047Y011273D01*
X003054Y011257D01*
X003064Y011243D01*
X003077Y011230D01*
X003091Y011220D01*
X003107Y011213D01*
X003124Y011209D01*
X003141Y011207D01*
X003841Y011207D01*
X003858Y011209D01*
X003875Y011213D01*
X003891Y011220D01*
X003905Y011230D01*
X003918Y011243D01*
X003928Y011257D01*
X003935Y011273D01*
X003939Y011290D01*
X003941Y011307D01*
X003941Y011457D01*
X003891Y011507D01*
X003891Y013407D01*
X003941Y013457D01*
X003941Y013607D01*
X003939Y013624D01*
X003935Y013641D01*
X003928Y013657D01*
X003918Y013671D01*
X003905Y013684D01*
X003891Y013694D01*
X003875Y013701D01*
X003858Y013705D01*
X003841Y013707D01*
X005391Y012503D02*
X005391Y012345D01*
X004841Y012282D02*
X004841Y010633D01*
X005391Y010570D02*
X005391Y010412D01*
X005391Y011345D02*
X005391Y011570D01*
X004841Y012282D02*
X004892Y012319D01*
X004945Y012354D01*
X005001Y012386D01*
X005058Y012414D01*
X005117Y012438D01*
X005177Y012459D01*
X005238Y012476D01*
X005300Y012490D01*
X005363Y012499D01*
X005426Y012505D01*
X005490Y012507D01*
X005554Y012505D01*
X005617Y012499D01*
X005680Y012490D01*
X005742Y012477D01*
X005803Y012459D01*
X005863Y012439D01*
X005922Y012414D01*
X005979Y012386D01*
X006035Y012355D01*
X006088Y012321D01*
X006139Y012283D01*
X006188Y012242D01*
X006234Y012198D01*
X006278Y012152D01*
X006319Y012103D01*
X006356Y012052D01*
X006391Y011998D01*
X006422Y011943D01*
X006450Y011886D01*
X006474Y011827D01*
X006494Y011767D01*
X006494Y011147D02*
X006474Y011087D01*
X006450Y011028D01*
X006422Y010971D01*
X006391Y010916D01*
X006356Y010862D01*
X006319Y010811D01*
X006278Y010762D01*
X006234Y010716D01*
X006188Y010672D01*
X006139Y010631D01*
X006088Y010593D01*
X006035Y010559D01*
X005979Y010527D01*
X005922Y010500D01*
X005863Y010475D01*
X005803Y010455D01*
X005742Y010437D01*
X005680Y010424D01*
X005617Y010415D01*
X005554Y010409D01*
X005490Y010407D01*
X005426Y010409D01*
X005363Y010415D01*
X005300Y010424D01*
X005238Y010438D01*
X005177Y010455D01*
X005117Y010476D01*
X005058Y010500D01*
X005001Y010528D01*
X004945Y010560D01*
X004892Y010595D01*
X004841Y010632D01*
X019891Y007307D02*
X019891Y007107D01*
X019891Y007307D02*
X020091Y007307D01*
X020891Y007307D02*
X021091Y007307D01*
X021091Y007107D01*
X021091Y006307D02*
X021091Y006107D01*
X020891Y006107D01*
X020091Y006107D02*
X019891Y006107D01*
X019891Y006307D01*
X019891Y004307D02*
X020091Y004307D01*
X019891Y004307D02*
X019891Y004107D01*
X019891Y003307D02*
X019891Y003107D01*
X020091Y003107D01*
X020891Y003107D02*
X021091Y003107D01*
X021091Y003307D01*
X021091Y004107D02*
X021091Y004307D01*
X020891Y004307D01*
D16*
X012661Y009707D03*
X009821Y009707D03*
X008911Y007957D03*
X006071Y007957D03*
X008321Y013457D03*
X008321Y014707D03*
X008321Y015957D03*
X011161Y015957D03*
X011161Y014707D03*
X011161Y013457D03*
D17*
X003491Y013877D03*
X003491Y011037D03*
X008704Y004877D03*
X009991Y004877D03*
X009991Y002037D03*
X008704Y002037D03*
D18*
X008770Y002504D02*
X008770Y002704D01*
X008704Y002771D01*
X008570Y002771D01*
X008504Y002704D01*
X008504Y002504D01*
X008904Y002504D01*
X008770Y002637D02*
X008904Y002771D01*
X008837Y002918D02*
X008904Y002985D01*
X008904Y003118D01*
X008837Y003185D01*
X008770Y003185D01*
X008704Y003118D01*
X008704Y002918D01*
X008837Y002918D01*
X008704Y002918D02*
X008570Y003052D01*
X008504Y003185D01*
X009341Y010412D02*
X009341Y010570D01*
X009891Y010633D02*
X009891Y012282D01*
X009341Y012345D02*
X009341Y012503D01*
X009341Y011570D02*
X009341Y011345D01*
X009891Y010632D02*
X009843Y010597D01*
X009793Y010564D01*
X009741Y010533D01*
X009687Y010506D01*
X009632Y010482D01*
X009575Y010462D01*
X009518Y010444D01*
X009460Y010430D01*
X009401Y010419D01*
X009341Y010412D01*
X008238Y011767D02*
X008258Y011827D01*
X008282Y011886D01*
X008310Y011943D01*
X008341Y011998D01*
X008376Y012052D01*
X008413Y012103D01*
X008454Y012152D01*
X008498Y012198D01*
X008544Y012242D01*
X008593Y012283D01*
X008644Y012321D01*
X008697Y012355D01*
X008753Y012387D01*
X008810Y012414D01*
X008869Y012439D01*
X008929Y012459D01*
X008990Y012477D01*
X009052Y012490D01*
X009115Y012499D01*
X009178Y012505D01*
X009242Y012507D01*
X009306Y012505D01*
X009369Y012499D01*
X009432Y012490D01*
X009494Y012476D01*
X009555Y012459D01*
X009615Y012438D01*
X009674Y012414D01*
X009731Y012386D01*
X009787Y012354D01*
X009840Y012319D01*
X009891Y012282D01*
X009341Y010412D02*
X009279Y010408D01*
X009216Y010407D01*
X009154Y010411D01*
X009092Y010418D01*
X009031Y010428D01*
X008970Y010443D01*
X008910Y010461D01*
X008851Y010482D01*
X008794Y010507D01*
X008739Y010535D01*
X008685Y010566D01*
X008633Y010601D01*
X008583Y010639D01*
X008536Y010679D01*
X008491Y010723D01*
X008448Y010768D01*
X008409Y010817D01*
X008372Y010867D01*
X008339Y010920D01*
X008308Y010974D01*
X008281Y011031D01*
X008258Y011088D01*
X008238Y011147D01*
D19*
X009241Y016657D02*
X009241Y016957D01*
X009141Y016957D01*
X009241Y016957D02*
X009241Y017257D01*
X011241Y017257D01*
X011241Y016957D01*
X011341Y016957D01*
X011241Y016957D02*
X011241Y016657D01*
X009241Y016657D01*
X010991Y016707D02*
X010991Y017207D01*
D20*
X010038Y016776D02*
X009792Y016776D01*
X009915Y016776D02*
X009915Y017146D01*
X009792Y017023D01*
X009670Y017085D02*
X009670Y016838D01*
X009608Y016776D01*
X009423Y016776D01*
X009423Y017146D01*
X009608Y017146D01*
X009670Y017085D01*
D21*
X005891Y016797D02*
X005960Y016774D01*
X006028Y016748D01*
X006095Y016718D01*
X006160Y016684D01*
X006223Y016648D01*
X006285Y016608D01*
X006344Y016565D01*
X006400Y016519D01*
X006455Y016470D01*
X006506Y016418D01*
X006555Y016364D01*
X006601Y016307D01*
X006644Y016248D01*
X006684Y016186D01*
X006720Y016123D01*
X006753Y016058D01*
X006783Y015991D01*
X006809Y015923D01*
X006832Y015853D01*
X006850Y015783D01*
X006866Y015711D01*
X006877Y015639D01*
X006885Y015567D01*
X006889Y015494D01*
X006889Y015420D01*
X006885Y015347D01*
X006877Y015275D01*
X006866Y015203D01*
X006850Y015131D01*
X006832Y015061D01*
X006809Y014991D01*
X006783Y014923D01*
X006753Y014856D01*
X006720Y014791D01*
X006684Y014728D01*
X006644Y014666D01*
X006601Y014607D01*
X006555Y014550D01*
X006506Y014496D01*
X006455Y014444D01*
X006400Y014395D01*
X006344Y014349D01*
X006285Y014306D01*
X006223Y014266D01*
X006160Y014230D01*
X006095Y014196D01*
X006028Y014166D01*
X005960Y014140D01*
X005891Y014117D01*
X004151Y015857D02*
X004174Y015926D01*
X004200Y015994D01*
X004230Y016061D01*
X004263Y016126D01*
X004300Y016189D01*
X004339Y016250D01*
X004382Y016309D01*
X004428Y016365D01*
X004477Y016419D01*
X004529Y016471D01*
X004583Y016520D01*
X004639Y016566D01*
X004698Y016609D01*
X004759Y016648D01*
X004822Y016685D01*
X004887Y016718D01*
X004954Y016748D01*
X005022Y016774D01*
X005091Y016797D01*
X004151Y015057D02*
X004174Y014988D01*
X004200Y014920D01*
X004230Y014853D01*
X004263Y014788D01*
X004300Y014725D01*
X004339Y014664D01*
X004382Y014605D01*
X004428Y014549D01*
X004477Y014495D01*
X004529Y014443D01*
X004583Y014394D01*
X004639Y014348D01*
X004698Y014305D01*
X004759Y014266D01*
X004822Y014229D01*
X004887Y014196D01*
X004954Y014166D01*
X005022Y014140D01*
X005091Y014117D01*
X006991Y010257D02*
X007047Y010255D01*
X007103Y010249D01*
X007158Y010239D01*
X007212Y010226D01*
X007266Y010208D01*
X007318Y010187D01*
X007368Y010163D01*
X007417Y010134D01*
X007463Y010103D01*
X007507Y010068D01*
X007549Y010031D01*
X007587Y009990D01*
X007623Y009947D01*
X007656Y009902D01*
X007686Y009854D01*
X006991Y010257D02*
X006938Y010255D01*
X006884Y010250D01*
X006832Y010241D01*
X006780Y010229D01*
X006729Y010213D01*
X006679Y010194D01*
X006630Y010171D01*
X006583Y010145D01*
X006538Y010117D01*
X006495Y010085D01*
X006455Y010051D01*
X006416Y010013D01*
X006380Y009974D01*
X006991Y008657D02*
X007045Y008659D01*
X007099Y008664D01*
X007152Y008673D01*
X007205Y008686D01*
X007256Y008702D01*
X007306Y008722D01*
X007355Y008745D01*
X007403Y008771D01*
X007448Y008800D01*
X007491Y008833D01*
X007532Y008868D01*
X007571Y008906D01*
X007607Y008946D01*
X007640Y008989D01*
X007670Y009034D01*
X007697Y009081D01*
X006991Y008657D02*
X006937Y008659D01*
X006884Y008664D01*
X006830Y008673D01*
X006778Y008686D01*
X006727Y008702D01*
X006676Y008722D01*
X006627Y008744D01*
X006580Y008770D01*
X006535Y008800D01*
X006492Y008832D01*
X006451Y008867D01*
X006412Y008905D01*
X006376Y008945D01*
D22*
X005491Y015457D03*
D23*
X008361Y006957D02*
X008361Y006707D01*
X008361Y006457D01*
X008611Y006457D02*
X008611Y006707D01*
X008611Y006957D01*
M02*
