%
M48
M72
T01C0.0157
T02C0.0320
T03C0.0354
T04C0.0360
T05C0.0394
T06C0.0512
T07C0.0520
%
T01
X15741Y5207
X18241Y13707
T02
X13241Y9707
X9491Y7957
X9491Y6707
X9991Y5457
X8704Y5457
X7491Y6707
X5491Y7957
X4491Y7707
X3991Y6957
X3491Y7707
X6491Y9457
X7491Y9457
X9241Y9707
X9241Y10957
X8491Y11457
X9241Y11957
X7741Y13457
X7741Y14707
X7741Y15957
X11741Y15957
X11741Y14707
X11741Y13457
X6241Y11457
X5491Y10957
X5491Y11957
X3491Y10457
X3491Y14457
X8704Y1457
X9991Y1457
T03
X8741Y16957
X11741Y16957
T04
X11741Y12207
X11741Y11207
T05
X5491Y2723
X5491Y4692
T06
X5491Y14037
X4071Y15457
X5491Y16877
T07
X13491Y15207
X13491Y12207
X20491Y6707
X20491Y3707
X4991Y9457
X3741Y9457
M30
